<svg xmlns="http://www.w3.org/2000/svg" version="1.1" xmlns:xlink="http://www.w3.org/1999/xlink" xmlns:svgjs="http://svgjs.dev/svgjs" width="2000" height="909" viewBox="0 0 2000 909"><g transform="matrix(1,0,0,1,-1.2121212121212466,0.3919443591165077)"><svg viewBox="0 0 396 180" data-background-color="#ffffff" preserveAspectRatio="xMidYMid meet" height="909" width="2000" xmlns="http://www.w3.org/2000/svg" xmlns:xlink="http://www.w3.org/1999/xlink"><g id="tight-bounds" transform="matrix(1,0,0,1,0.2400000000000091,-0.0776127443795076)"><svg viewBox="0 0 395.52 180.15522548875902" height="180.15522548875902" width="395.52"><g><svg viewBox="0 0 395.52 180.15522548875902" height="180.15522548875902" width="395.52"><g><svg viewBox="0 0 395.52 180.15522548875902" height="180.15522548875902" width="395.52"><g id="textblocktransform"><svg viewBox="0 0 395.52 180.15522548875902" height="180.15522548875902" width="395.52" id="textblock"><g><svg viewBox="0 0 395.52 130.14640316205532" height="130.14640316205532" width="395.52"><g transform="matrix(1,0,0,1,0,0)"><svg width="395.52" viewBox="-1.9 -37.45 151.38 49.95" height="130.14640316205532" data-palette-color="#096a2e"><g class="wordmark-text-0" data-fill-palette-color="primary" id="text-0"><path d="M12.15-5.35L12.15-5.35Q12.15-6.25 12.38-7.6 12.6-8.95 13.3-11.9L13.3-11.9Q14-14.75 14.2-16 14.4-17.25 14.4-18.1L14.4-18.1Q14.4-19.35 13.93-20 13.45-20.65 12.55-20.65L12.55-20.65Q11.35-20.65 10.23-19.23 9.1-17.8 8.75-16.25L8.75-16.25 5.3 0-1.9 0 5.35-34 12.75-35 10.05-22.4Q11.3-23.8 12.75-24.5 14.2-25.2 15.9-25.2L15.9-25.2Q18.55-25.2 20-23.75 21.45-22.3 21.45-19.55L21.45-19.55Q21.45-18.4 21.18-16.82 20.9-15.25 20.1-12L20.1-12Q19.45-9.45 19.25-8.4 19.05-7.35 19.05-6.65L19.05-6.65Q19.05-5.6 19.55-5.08 20.05-4.55 21.05-4.55L21.05-4.55Q22.3-4.55 23.2-5.4 24.1-6.25 25.25-8.95L25.25-8.95 27.35-8.95Q25.75-4.3 23.48-2 21.2 0.3 18.05 0.3L18.05 0.3Q15.25 0.3 13.7-1.23 12.15-2.75 12.15-5.35ZM37.6-31.65L37.6-31.65Q37.6-30 36.42-28.85 35.25-27.7 33.6-27.7L33.6-27.7Q31.95-27.7 30.8-28.85 29.65-30 29.65-31.65L29.65-31.65Q29.65-33.3 30.8-34.48 31.95-35.65 33.6-35.65L33.6-35.65Q35.25-35.65 36.42-34.48 37.6-33.3 37.6-31.65ZM24.85-5.7L24.85-5.7Q24.85-6.35 24.95-7.18 25.05-8 25.25-8.95L25.25-8.95 28.65-25 35.85-25 32.25-8Q32.15-7.55 32.1-7.18 32.05-6.8 32.05-6.4L32.05-6.4Q32.05-5.4 32.52-4.98 33-4.55 34.1-4.55L34.1-4.55Q35.5-4.55 36.75-5.78 38-7 38.6-8.95L38.6-8.95 40.7-8.95Q39.1-4.4 36.4-2.05 33.7 0.3 30.2 0.3L30.2 0.3Q27.7 0.3 26.27-1.28 24.85-2.85 24.85-5.7ZM39.95-23L40.34-25 41.99-25 43.49-31.9 50.89-32.9 49.2-25 52.2-25 51.8-23 48.8-23 45.59-8Q45.49-7.55 45.45-7.18 45.39-6.8 45.39-6.4L45.39-6.4Q45.39-5.4 45.87-4.98 46.34-4.55 47.45-4.55L47.45-4.55Q48.84-4.55 50.09-5.78 51.34-7 51.95-8.95L51.95-8.95 54.05-8.95Q52.45-4.4 49.74-2.05 47.05 0.3 43.55 0.3L43.55 0.3Q41.05 0.3 39.62-1.28 38.2-2.85 38.2-5.7L38.2-5.7Q38.2-6.35 38.3-7.18 38.39-8 38.59-8.95L38.59-8.95 41.59-23 39.95-23ZM70.29-20.85L70.29-20.85Q70.29-19.15 69.57-18.18 68.84-17.2 67.64-17.2L67.64-17.2Q67.24-17.2 66.79-17.35 66.34-17.5 65.89-17.8L65.89-17.8Q66.19-18.6 66.34-19.35 66.49-20.1 66.49-20.75L66.49-20.75Q66.49-21.75 66.14-22.28 65.79-22.8 65.09-22.8L65.09-22.8Q62.89-22.8 60.79-17.73 58.69-12.65 58.69-8.1L58.69-8.1Q58.69-5.8 59.47-4.85 60.24-3.9 62.29-3.9L62.29-3.9Q64.64-3.9 66.62-4.98 68.59-6.05 71.14-8.95L71.14-8.95 72.84-8.95Q69.94-4.25 66.54-1.98 63.14 0.3 59.09 0.3L59.09 0.3Q55.24 0.3 53.27-1.7 51.29-3.7 51.29-7.65L51.29-7.65Q51.29-10.5 52.17-13.7 53.04-16.9 54.59-19.4L54.59-19.4Q56.44-22.4 59.02-23.93 61.59-25.45 64.74-25.45L64.74-25.45Q67.49-25.45 68.89-24.28 70.29-23.1 70.29-20.85ZM83.29-5.35L83.29-5.35Q83.29-6.25 83.52-7.6 83.74-8.95 84.44-11.9L84.44-11.9Q85.14-14.75 85.34-16 85.54-17.25 85.54-18.1L85.54-18.1Q85.54-19.35 85.07-20 84.59-20.65 83.69-20.65L83.69-20.65Q82.49-20.65 81.37-19.23 80.24-17.8 79.89-16.25L79.89-16.25 76.44 0 69.24 0 76.49-34 83.89-35 81.19-22.4Q82.44-23.8 83.89-24.5 85.34-25.2 87.04-25.2L87.04-25.2Q89.69-25.2 91.14-23.75 92.59-22.3 92.59-19.55L92.59-19.55Q92.59-18.4 92.32-16.82 92.04-15.25 91.24-12L91.24-12Q90.59-9.45 90.39-8.4 90.19-7.35 90.19-6.65L90.19-6.65Q90.19-5.6 90.69-5.08 91.19-4.55 92.19-4.55L92.19-4.55Q93.44-4.55 94.34-5.4 95.24-6.25 96.39-8.95L96.39-8.95 98.49-8.95Q96.89-4.3 94.62-2 92.34 0.3 89.19 0.3L89.19 0.3Q86.39 0.3 84.84-1.23 83.29-2.75 83.29-5.35ZM108.74-31.65L108.74-31.65Q108.74-30 107.56-28.85 106.39-27.7 104.74-27.7L104.74-27.7Q103.09-27.7 101.94-28.85 100.79-30 100.79-31.65L100.79-31.65Q100.79-33.3 101.94-34.48 103.09-35.65 104.74-35.65L104.74-35.65Q106.39-35.65 107.56-34.48 108.74-33.3 108.74-31.65ZM95.99-5.7L95.99-5.7Q95.99-6.35 96.09-7.18 96.19-8 96.39-8.95L96.39-8.95 99.79-25 106.99-25 103.39-8Q103.29-7.55 103.24-7.18 103.19-6.8 103.19-6.4L103.19-6.4Q103.19-5.4 103.66-4.98 104.14-4.55 105.24-4.55L105.24-4.55Q106.64-4.55 107.89-5.78 109.14-7 109.74-8.95L109.74-8.95 111.84-8.95Q110.24-4.4 107.54-2.05 104.84 0.3 101.34 0.3L101.34 0.3Q98.84 0.3 97.41-1.28 95.99-2.85 95.99-5.7ZM123.09-37.45L123.09-37.45Q125.54-37.45 127.26-35.9 128.99-34.35 128.99-32.05L128.99-32.05Q128.99-31.45 128.96-30.95 128.94-30.45 128.84-30L128.84-30 126.49-30Q126.59-30.8 126.59-30.98 126.59-31.15 126.59-31.35L126.59-31.35Q126.59-32.15 126.06-32.6 125.54-33.05 124.69-33.05L124.69-33.05Q123.44-33.05 122.51-32 121.59-30.95 121.19-28.95L121.19-28.95 120.34-25 123.99-25 123.64-23 119.94-23 114.19 4Q113.29 8.25 111.04 10.38 108.79 12.5 105.24 12.5L105.24 12.5Q102.79 12.5 101.06 10.95 99.34 9.4 99.34 7.1L99.34 7.1Q99.34 4.5 101.06 2.85 102.79 1.2 107.94-0.4L107.94-0.4 113.99-28.95Q114.89-33.15 117.19-35.3 119.49-37.45 123.09-37.45ZM106.94 4.15L107.59 1.25Q104.69 2.2 103.39 3.45 102.09 4.7 102.09 6.4L102.09 6.4Q102.09 7 102.71 7.53 103.34 8.05 104.09 8.05L104.09 8.05Q105.04 8.05 105.79 7.05 106.54 6.05 106.94 4.15L106.94 4.15ZM131.43-4.55L131.43-4.55Q132.68-4.55 133.68-5.6 134.68-6.65 135.33-8.65L135.33-8.65 138.83-25 146.03-25 141.08-1.8Q143.58-2.7 145.01-4.33 146.43-5.95 147.38-8.95L147.38-8.95 149.48-8.95Q148.33-5.15 146.21-2.85 144.08-0.55 140.63 0.4L140.63 0.4 139.88 4Q138.98 8.2 136.73 10.35 134.48 12.5 130.88 12.5L130.88 12.5Q128.33 12.5 126.81 11.2 125.28 9.9 125.28 7.65L125.28 7.65Q125.28 5.2 127.31 3.33 129.33 1.45 133.43 0.2L133.43 0.2 134.03-2.5Q132.78-1.1 131.31-0.4 129.83 0.3 128.03 0.3L128.03 0.3Q125.53 0.3 124.11-1.28 122.68-2.85 122.68-5.7L122.68-5.7Q122.68-6.35 122.78-7.18 122.88-8 123.08-8.95L123.08-8.95 126.48-25 133.68-25 130.08-8Q130.03-7.7 129.98-7.38 129.93-7.05 129.93-6.75L129.93-6.75Q129.93-5.7 130.31-5.13 130.68-4.55 131.43-4.55ZM132.63 4.15L132.93 2.7Q130.43 3.65 129.23 4.67 128.03 5.7 128.03 6.95L128.03 6.95Q128.03 7.6 128.53 8.1 129.03 8.6 129.73 8.6L129.73 8.6Q130.58 8.6 131.38 7.4 132.18 6.2 132.63 4.15L132.63 4.15Z" fill="#096a2e" data-fill-palette-color="primary"></path></g></svg></g></svg></g><g transform="matrix(1,0,0,1,163.310208,160.8708454349407)"><svg viewBox="0 0 232.209792 19.284380053818314" height="19.284380053818314" width="232.209792"><g transform="matrix(1,0,0,1,0,0)"><svg width="232.209792" viewBox="2.1 -35.1 538.78 44.75" height="19.284380053818314" data-palette-color="#3c3c3c"><path d="M13.35-32.3Q16.8-32.3 20.5-30.8L20.5-30.8 19.85-26.95 19.15-26.75Q17.7-27.85 16.07-28.45 14.45-29.05 12.85-29.05L12.85-29.05Q11-29.05 9.63-28.3 8.25-27.55 7.53-26.35 6.8-25.15 6.8-23.85L6.8-23.85Q6.8-22.5 7.63-21.48 8.45-20.45 9.7-19.7 10.95-18.95 13.1-17.9L13.1-17.9Q15.8-16.65 17.45-15.58 19.1-14.5 20.28-12.85 21.45-11.2 21.45-8.85L21.45-8.85Q21.45-6.35 20.1-4.25 18.75-2.15 16.3-0.9 13.85 0.35 10.7 0.35L10.7 0.35Q8.6 0.35 6.33-0.23 4.05-0.8 2.1-1.9L2.1-1.9 2.6-6 3.15-6.25Q4.9-4.55 7.03-3.73 9.15-2.9 11.1-2.9L11.1-2.9Q13-2.9 14.48-3.65 15.95-4.4 16.73-5.65 17.5-6.9 17.5-8.3L17.5-8.3Q17.5-10.4 15.9-11.68 14.3-12.95 11.05-14.45L11.05-14.45Q8.4-15.75 6.8-16.78 5.2-17.8 4.05-19.43 2.9-21.05 2.9-23.4L2.9-23.4Q2.9-25.85 4.23-27.9 5.55-29.95 7.93-31.13 10.3-32.3 13.35-32.3L13.35-32.3ZM35.15-23.3Q39.8-23.3 42.37-20.28 44.95-17.25 44.95-11.75L44.95-11.75Q44.95-5.95 42.25-2.78 39.55 0.4 34.55 0.4L34.55 0.4Q29.85 0.4 27.27-2.63 24.7-5.65 24.7-11.15L24.7-11.15Q24.7-16.95 27.42-20.13 30.15-23.3 35.15-23.3L35.15-23.3ZM34.9-20.5Q31.75-20.5 30.1-18.35 28.45-16.2 28.45-12.05L28.45-12.05Q28.45-7.25 30.07-4.85 31.7-2.45 34.8-2.45L34.8-2.45Q37.95-2.45 39.6-4.55 41.25-6.65 41.25-10.85L41.25-10.85Q41.25-15.6 39.62-18.05 38-20.5 34.9-20.5L34.9-20.5ZM59.4-23.3Q60.95-23.3 62.62-22.93 64.3-22.55 65.55-21.95L65.55-21.95 64.84-18.5 64.4-18.35Q61.8-20.05 59.25-20.05L59.25-20.05Q56.3-20.05 54.65-17.8 53-15.55 53-11.5L53-11.5Q53-7.45 54.72-5.13 56.45-2.8 59.5-2.8L59.5-2.8Q60.85-2.8 62.32-3.25 63.8-3.7 65.09-4.5L65.09-4.5 65.55-4.25 65.09-0.9Q62.05 0.4 59 0.4L59 0.4Q54.45 0.4 51.85-2.73 49.25-5.85 49.25-11.3L49.25-11.3Q49.25-16.85 51.97-20.08 54.7-23.3 59.4-23.3L59.4-23.3ZM70.44 0L70.64-9.7 70.49-22.65 74.34-23 74.24-10.05 74.34 0 70.44 0ZM72.49-33.15Q73.49-33.15 74.09-32.55 74.69-31.95 74.69-30.9L74.69-30.9Q74.69-29.8 74.07-29.15 73.44-28.5 72.34-28.5L72.34-28.5Q71.29-28.5 70.72-29.1 70.14-29.7 70.14-30.8L70.14-30.8Q70.14-31.85 70.77-32.5 71.39-33.15 72.49-33.15L72.49-33.15ZM90.04-23.3Q93.29-23.3 95.17-21.7 97.04-20.1 97.04-17.3L97.04-17.3Q97.04-16.45 96.74-11.15L96.74-11.15Q96.44-5.85 96.44-4.95L96.44-4.95Q96.44-3.85 96.79-3.43 97.14-3 97.99-3L97.99-3Q98.74-3 99.69-3.3L99.69-3.3 100.09-2.95 99.69-0.7Q98.24 0.15 96.84 0.3L96.84 0.3Q95.29 0.15 94.37-0.8 93.44-1.75 93.39-3.4L93.39-3.4 93.04-3.4Q90.34-0.65 87.69 0.35L87.69 0.35Q84.34 0.35 82.47-1.33 80.59-3 80.59-5.9L80.59-5.9Q80.59-8.1 81.77-9.4 82.94-10.7 85.24-11.25L85.24-11.25 93.34-13.15 93.39-16.4Q93.39-18.35 92.37-19.4 91.34-20.45 89.44-20.45L89.44-20.45Q87.74-20.45 86.04-19.65 84.34-18.85 82.39-17.15L82.39-17.15 81.99-17.35 81.49-20.2Q85.64-23.3 90.04-23.3L90.04-23.3ZM93.29-10.6L86.04-8.85Q85.04-8.55 84.59-8.03 84.14-7.5 84.14-6.45L84.14-6.45Q84.14-4.8 85.07-3.88 85.99-2.95 87.54-2.95L87.54-2.95Q90.29-2.95 93.14-6.5L93.14-6.5 93.29-10.6ZM109.79-35.1L109.49-10.05 109.74 0 105.79 0 106.09-9.75 105.84-34.75 109.79-35.1ZM122.14-35.1L121.84-10.05 122.09 0 118.14 0 118.44-9.75 118.19-34.75 122.14-35.1ZM130.43-23.05L131.18-20.1 136.68-4.3 137.03-4.3 142.73-19.75 143.48-22.9 147.03-22.9 138.83-0.8Q137.58 2.6 136.16 4.55 134.73 6.5 132.71 7.63 130.68 8.75 127.38 9.55L127.38 9.55 127.03 9.55Q125.98 8.5 125.38 7.2L125.38 7.2 125.48 6.75Q129.28 6 131.31 4.63 133.33 3.25 135.08 0L135.08 0 126.68-22.8 130.43-23.05ZM172.08-32.25Q178.93-32.25 182.58-28.35 186.23-24.45 186.23-17.15L186.23-17.15Q186.23-8.7 182.28-4.2 178.33 0.3 170.93 0.3L170.93 0.3Q168.88 0.3 165.95 0.23 163.03 0.15 160.53 0L160.53 0 160.48 0 160.73-9.65 160.48-32.05 160.53-32.05 172.08-32.25ZM171.58-3.05Q176.68-3.05 179.4-6.38 182.13-9.7 182.13-16.3L182.13-16.3Q182.13-28.9 171.78-28.9L171.78-28.9Q168.63-28.9 164.53-28.7L164.53-28.7 164.33-10 164.48-3.35Q166.03-3.2 168.2-3.13 170.38-3.05 171.58-3.05L171.58-3.05ZM202.63-22.95Q203.23-22.95 203.93-22.85L203.93-22.85 203.93-19 203.48-18.85Q202.63-19.1 201.63-19.1L201.63-19.1Q199.98-19.1 198.6-17.78 197.23-16.45 195.88-13.55L195.88-13.55 195.83-10.05 196.08 0 192.13 0 192.38-9.7 192.18-22.65 195.93-23 195.88-18.3 196.18-18.3Q197.58-20.8 199.28-21.88 200.98-22.95 202.63-22.95L202.63-22.95ZM208.32 0L208.52-9.7 208.37-22.65 212.22-23 212.12-10.05 212.22 0 208.32 0ZM210.37-33.15Q211.37-33.15 211.97-32.55 212.57-31.95 212.57-30.9L212.57-30.9Q212.57-29.8 211.95-29.15 211.32-28.5 210.22-28.5L210.22-28.5Q209.17-28.5 208.6-29.1 208.02-29.7 208.02-30.8L208.02-30.8Q208.02-31.85 208.65-32.5 209.27-33.15 210.37-33.15L210.37-33.15ZM221.02-23.05L221.67-20 226.62-3.95 226.92-3.95 232.72-19.8 233.52-22.9 237.07-22.9 228.67 0 224.42 0 217.32-22.8 221.02-23.05ZM256.92-11.65L242.57-11.6 242.57-11.5Q242.57-7.3 244.47-5.05 246.37-2.8 249.87-2.8L249.87-2.8Q251.62-2.8 253.37-3.38 255.12-3.95 256.57-5L256.57-5 256.97-4.7 256.37-1.3Q252.87 0.4 249.37 0.4L249.37 0.4Q244.47 0.4 241.67-2.73 238.87-5.85 238.87-11.3L238.87-11.3Q238.87-16.8 241.67-20.05 244.47-23.3 249.22-23.3L249.22-23.3Q253.22-23.3 255.42-21.03 257.62-18.75 257.62-14.7L257.62-14.7Q257.62-13.35 257.42-12.15L257.42-12.15 256.92-11.65ZM249.22-20.5Q246.72-20.5 245.04-18.88 243.37-17.25 242.82-14.3L242.82-14.3 253.87-14.5 253.97-15.2Q253.97-17.75 252.74-19.13 251.52-20.5 249.22-20.5L249.22-20.5ZM278.02 0L278.27-15.55Q278.32-17.6 277.32-18.75 276.32-19.9 274.37-19.9L274.37-19.9Q271.22-19.9 267.57-16.35L267.57-16.35 267.57-10.05 267.77 0 263.82 0 264.07-9.7 263.87-22.65 267.62-23 267.62-19.65 267.92-19.65Q271.02-22.4 274.27-23.2L274.27-23.2Q278.02-23.2 279.99-21.45 281.97-19.7 281.92-16.45L281.92-16.45 281.82-9.95 282.02 0 278.02 0ZM311.56-12.95Q314.86-7.5 319.86-0.95L319.86-0.95 319.81-0.45Q318.01 0.25 316.11 0.45L316.11 0.45 315.56 0.1Q311.46-6.05 308.21-11.9L308.21-11.9 302.36-11.9 302.36-10 302.56 0 298.51 0 298.76-9.65 298.51-32.05 308.31-32.1Q313.01-32.1 315.59-29.73 318.16-27.35 318.16-22.95L318.16-22.95Q318.16-19.65 316.44-17.03 314.71-14.4 311.56-12.95L311.56-12.95ZM302.56-28.65L302.41-15.3 308.41-15.15Q314.01-16.75 314.01-22.6L314.01-22.6Q314.01-25.65 312.36-27.18 310.71-28.7 307.41-28.8L307.41-28.8 302.56-28.65ZM325.66 0L325.86-9.7 325.71-22.65 329.56-23 329.46-10.05 329.56 0 325.66 0ZM327.71-33.15Q328.71-33.15 329.31-32.55 329.91-31.95 329.91-30.9L329.91-30.9Q329.91-29.8 329.28-29.15 328.66-28.5 327.56-28.5L327.56-28.5Q326.51-28.5 325.93-29.1 325.36-29.7 325.36-30.8L325.36-30.8Q325.36-31.85 325.98-32.5 326.61-33.15 327.71-33.15L327.71-33.15ZM355.21-35.1L354.86-10.05 355.01-4.9Q355.06-3.85 355.36-3.43 355.66-3 356.46-3L356.46-3Q357.26-3 358.16-3.3L358.16-3.3 358.56-2.95 358.16-0.7Q356.81 0.15 355.36 0.3L355.36 0.3Q353.81 0.15 352.93-0.75 352.06-1.65 351.86-3.2L351.86-3.2 351.51-3.2Q350.01-1.9 348.81-1.13 347.61-0.35 346.06 0.25L346.06 0.25Q341.11 0.25 338.46-2.78 335.81-5.8 335.81-11.4L335.81-11.4Q335.81-17.05 338.76-20.18 341.71-23.3 346.91-23.3L346.91-23.3Q349.26-23.3 351.31-22.8L351.31-22.8 351.26-34.75 355.21-35.1ZM346.46-20.5Q343.26-20.5 341.41-18.32 339.56-16.15 339.56-12.05L339.56-12.05Q339.56-7.8 341.23-5.45 342.91-3.1 345.86-3.1L345.86-3.1Q347.26-3.1 348.58-3.8 349.91-4.5 351.36-6.15L351.36-6.15 351.46-9.75 351.31-19.25Q348.66-20.5 346.46-20.5L346.46-20.5ZM379.75-11.65L365.4-11.6 365.4-11.5Q365.4-7.3 367.3-5.05 369.2-2.8 372.7-2.8L372.7-2.8Q374.45-2.8 376.2-3.38 377.95-3.95 379.4-5L379.4-5 379.8-4.7 379.2-1.3Q375.7 0.4 372.2 0.4L372.2 0.4Q367.3 0.4 364.5-2.73 361.7-5.85 361.7-11.3L361.7-11.3Q361.7-16.8 364.5-20.05 367.3-23.3 372.05-23.3L372.05-23.3Q376.05-23.3 378.25-21.03 380.45-18.75 380.45-14.7L380.45-14.7Q380.45-13.35 380.25-12.15L380.25-12.15 379.75-11.65ZM372.05-20.5Q369.55-20.5 367.88-18.88 366.2-17.25 365.65-14.3L365.65-14.3 376.7-14.5 376.8-15.2Q376.8-17.75 375.58-19.13 374.35-20.5 372.05-20.5L372.05-20.5ZM404.25-32.3Q407.7-32.3 411.4-30.8L411.4-30.8 410.75-26.95 410.05-26.75Q408.6-27.85 406.97-28.45 405.35-29.05 403.75-29.05L403.75-29.05Q401.9-29.05 400.52-28.3 399.15-27.55 398.42-26.35 397.7-25.15 397.7-23.85L397.7-23.85Q397.7-22.5 398.52-21.48 399.35-20.45 400.6-19.7 401.85-18.95 404-17.9L404-17.9Q406.7-16.65 408.35-15.58 410-14.5 411.17-12.85 412.35-11.2 412.35-8.85L412.35-8.85Q412.35-6.35 411-4.25 409.65-2.15 407.2-0.9 404.75 0.35 401.6 0.35L401.6 0.35Q399.5 0.35 397.22-0.23 394.95-0.8 393-1.9L393-1.9 393.5-6 394.05-6.25Q395.8-4.55 397.92-3.73 400.05-2.9 402-2.9L402-2.9Q403.9-2.9 405.37-3.65 406.85-4.4 407.62-5.65 408.4-6.9 408.4-8.3L408.4-8.3Q408.4-10.4 406.8-11.68 405.2-12.95 401.95-14.45L401.95-14.45Q399.3-15.75 397.7-16.78 396.1-17.8 394.95-19.43 393.8-21.05 393.8-23.4L393.8-23.4Q393.8-25.85 395.12-27.9 396.45-29.95 398.82-31.13 401.2-32.3 404.25-32.3L404.25-32.3ZM432.4 0L432.65-15.55Q432.7-17.6 431.7-18.75 430.7-19.9 428.75-19.9L428.75-19.9Q425.45-19.9 422-16.35L422-16.35 421.9-10.05 422.15 0 418.2 0 418.5-9.75 418.25-34.75 422.2-35.1 422-19.65 422.3-19.65Q425.4-22.4 428.65-23.2L428.65-23.2Q432.45-23.2 434.4-21.45 436.35-19.7 436.3-16.45L436.3-16.45 436.2-9.95 436.4 0 432.4 0ZM451.54-23.3Q454.79-23.3 456.67-21.7 458.54-20.1 458.54-17.3L458.54-17.3Q458.54-16.45 458.24-11.15L458.24-11.15Q457.94-5.85 457.94-4.95L457.94-4.95Q457.94-3.85 458.29-3.43 458.64-3 459.49-3L459.49-3Q460.24-3 461.19-3.3L461.19-3.3 461.59-2.95 461.19-0.7Q459.74 0.15 458.34 0.3L458.34 0.3Q456.79 0.15 455.87-0.8 454.94-1.75 454.89-3.4L454.89-3.4 454.54-3.4Q451.84-0.65 449.19 0.35L449.19 0.35Q445.84 0.35 443.97-1.33 442.09-3 442.09-5.9L442.09-5.9Q442.09-8.1 443.27-9.4 444.44-10.7 446.74-11.25L446.74-11.25 454.84-13.15 454.89-16.4Q454.89-18.35 453.87-19.4 452.84-20.45 450.94-20.45L450.94-20.45Q449.24-20.45 447.54-19.65 445.84-18.85 443.89-17.15L443.89-17.15 443.49-17.35 442.99-20.2Q447.14-23.3 451.54-23.3L451.54-23.3ZM454.79-10.6L447.54-8.85Q446.54-8.55 446.09-8.03 445.64-7.5 445.64-6.45L445.64-6.45Q445.64-4.8 446.57-3.88 447.49-2.95 449.04-2.95L449.04-2.95Q451.79-2.95 454.64-6.5L454.64-6.5 454.79-10.6ZM477.09-22.95Q477.69-22.95 478.39-22.85L478.39-22.85 478.39-19 477.94-18.85Q477.09-19.1 476.09-19.1L476.09-19.1Q474.44-19.1 473.07-17.78 471.69-16.45 470.34-13.55L470.34-13.55 470.29-10.05 470.54 0 466.59 0 466.84-9.7 466.64-22.65 470.39-23 470.34-18.3 470.64-18.3Q472.04-20.8 473.74-21.88 475.44-22.95 477.09-22.95L477.09-22.95ZM482.79 0L482.99-9.7 482.84-22.65 486.69-23 486.59-10.05 486.69 0 482.79 0ZM484.84-33.15Q485.84-33.15 486.44-32.55 487.04-31.95 487.04-30.9L487.04-30.9Q487.04-29.8 486.41-29.15 485.79-28.5 484.69-28.5L484.69-28.5Q483.64-28.5 483.06-29.1 482.49-29.7 482.49-30.8L482.49-30.8Q482.49-31.85 483.11-32.5 483.74-33.15 484.84-33.15L484.84-33.15ZM509.04 0L509.29-15.55Q509.34-17.6 508.34-18.75 507.34-19.9 505.39-19.9L505.39-19.9Q502.24-19.9 498.59-16.35L498.59-16.35 498.59-10.05 498.79 0 494.84 0 495.09-9.7 494.89-22.65 498.64-23 498.64-19.65 498.94-19.65Q502.04-22.4 505.29-23.2L505.29-23.2Q509.04-23.2 511.01-21.45 512.99-19.7 512.94-16.45L512.94-16.45 512.84-9.95 513.04 0 509.04 0ZM540.88-20.95Q539.33-20.5 536.28-19.9L536.28-19.9 536.18-19.7Q537.28-17.95 537.28-15.45L537.28-15.45Q537.28-11.8 534.86-9.65 532.43-7.5 528.28-7.5L528.28-7.5Q526.63-7.5 525.18-7.9L525.18-7.9Q524.33-7.25 524.03-6.85 523.73-6.45 523.73-5.95L523.73-5.95Q523.73-4.9 525.03-4.48 526.33-4.05 529.28-3.6L529.28-3.6Q532.18-3.2 534.03-2.7 535.88-2.2 537.23-1.07 538.58 0.05 538.58 2.05L538.58 2.05Q538.58 4.15 537.16 5.9 535.73 7.65 533.26 8.65 530.78 9.65 527.83 9.65L527.83 9.65Q523.83 9.65 521.61 7.83 519.38 6 519.38 3.1L519.38 3.1Q520.58 0.7 523.78-1.25L523.78-1.25 523.78-1.5Q521.98-2.05 521.01-2.98 520.03-3.9 520.03-5.5L520.03-5.5Q521.08-7.25 523.08-8.55L523.08-8.55 523.08-8.75Q521.48-9.75 520.66-11.38 519.83-13 519.83-15.15L519.83-15.15Q519.83-18.9 522.26-21.03 524.68-23.15 528.73-23.15L528.73-23.15Q531.38-23.15 533.23-22.25L533.23-22.25Q536.68-22.9 540.48-23.95L540.48-23.95 540.88-23.65 540.88-20.95ZM528.48-10.2Q530.98-10.2 532.36-11.6 533.73-13 533.73-15.5L533.73-15.5Q533.73-17.9 532.43-19.2 531.13-20.5 528.68-20.5L528.68-20.5Q526.18-20.5 524.78-19.15 523.38-17.8 523.38-15.3L523.38-15.3Q523.38-12.9 524.71-11.55 526.03-10.2 528.48-10.2L528.48-10.2ZM535.08 2.8Q535.08 1.15 533.41 0.5 531.73-0.15 528.33-0.65L528.33-0.65 526.73-0.9Q524.83 0.25 523.86 1.3 522.88 2.35 522.88 3.5L522.88 3.5Q522.88 4.95 524.31 5.9 525.73 6.85 528.28 6.85L528.28 6.85Q531.18 6.85 533.13 5.68 535.08 4.5 535.08 2.8L535.08 2.8Z" opacity="1" transform="matrix(1,0,0,1,0,0)" fill="#3c3c3c" class="slogan-text-1" data-fill-palette-color="secondary" id="text-1"></path></svg></g></svg></g></svg></g></svg></g></svg></g><defs></defs></svg><rect width="395.52" height="180.15522548875902" fill="none" stroke="none" visibility="hidden"></rect></g></svg></g></svg>