<svg width="357" height="276" viewBox="0 0 357 276" fill="none" xmlns="http://www.w3.org/2000/svg">
<path d="M17.45 191.324C17.4038 191.324 17.3596 191.306 17.3269 191.273C17.2942 191.24 17.2759 191.196 17.2759 191.15V187.748C17.2759 187.701 17.2942 187.657 17.3269 187.624C17.3595 187.592 17.4038 187.573 17.45 187.573C17.4962 187.573 17.5405 187.592 17.5732 187.624C17.6058 187.657 17.6242 187.701 17.6242 187.748V191.15C17.6242 191.196 17.6058 191.24 17.5732 191.273C17.5405 191.306 17.4962 191.324 17.45 191.324Z" fill="#CCCCCC"/>
<path d="M17.4502 190.155C17.4086 190.155 17.3683 190.14 17.3368 190.113L15.247 188.316C15.2294 188.301 15.2149 188.283 15.2044 188.263C15.1938 188.242 15.1875 188.22 15.1856 188.197C15.1838 188.174 15.1865 188.151 15.1936 188.129C15.2007 188.107 15.2121 188.087 15.2271 188.069C15.242 188.052 15.2603 188.037 15.2809 188.027C15.3014 188.017 15.3238 188.01 15.3468 188.009C15.3697 188.007 15.3927 188.01 15.4145 188.017C15.4364 188.025 15.4565 188.036 15.4738 188.051L17.5637 189.848C17.5907 189.871 17.6099 189.902 17.6189 189.937C17.6278 189.971 17.6259 190.008 17.6136 190.041C17.6012 190.075 17.5789 190.103 17.5497 190.124C17.5205 190.144 17.4857 190.155 17.4502 190.155L17.4502 190.155Z" fill="#CCCCCC"/>
<path d="M30.8601 191.203C30.8614 189.492 31.5409 187.852 32.7492 186.642C33.9575 185.433 35.5957 184.753 37.3038 184.753C39.012 184.753 40.6502 185.433 41.8585 186.642C43.0668 187.852 43.7462 189.492 43.7476 191.203" fill="#F2F2F2"/>
<path d="M37.3038 191.203C37.2576 191.203 37.2133 191.185 37.1806 191.152C37.148 191.12 37.1296 191.075 37.1296 191.029V187.627C37.1296 187.581 37.148 187.536 37.1806 187.504C37.2133 187.471 37.2576 187.453 37.3038 187.453C37.35 187.453 37.3943 187.471 37.4269 187.504C37.4596 187.536 37.4779 187.581 37.4779 187.627V191.029C37.4779 191.075 37.4596 191.12 37.4269 191.152C37.3943 191.185 37.35 191.203 37.3038 191.203Z" fill="#CCCCCC"/>
<path d="M37.3038 190.034C37.2622 190.034 37.222 190.019 37.1904 189.992L35.1006 188.195C35.083 188.181 35.0685 188.162 35.0579 188.142C35.0474 188.121 35.041 188.099 35.0391 188.076C35.0373 188.053 35.04 188.03 35.0471 188.008C35.0542 187.986 35.0656 187.966 35.0806 187.948C35.0956 187.931 35.1139 187.916 35.1344 187.906C35.155 187.896 35.1774 187.89 35.2004 187.888C35.2233 187.886 35.2464 187.889 35.2682 187.897C35.29 187.904 35.3101 187.915 35.3275 187.931L37.4173 189.727C37.4443 189.751 37.4636 189.782 37.4725 189.816C37.4814 189.851 37.4796 189.887 37.4672 189.92C37.4548 189.954 37.4325 189.983 37.4033 190.003C37.3741 190.023 37.3394 190.034 37.3038 190.034L37.3038 190.034Z" fill="#CCCCCC"/>
<path d="M20.6465 238.521C26.8662 238.521 31.9082 237.343 31.9082 235.889C31.9082 234.435 26.8662 233.257 20.6465 233.257C14.4268 233.257 9.38477 234.435 9.38477 235.889C9.38477 237.343 14.4268 238.521 20.6465 238.521Z" fill="#F2F2F2"/>
<path d="M82.0569 204.701C82.1972 204.701 82.3319 204.644 82.4311 204.544C82.5303 204.444 82.5861 204.308 82.5861 204.166C82.5861 204.025 82.5303 203.889 82.4311 203.788C82.3319 203.688 82.1972 203.632 82.0569 203.632H77.0298V201.495H82.0569C82.1972 201.495 82.3319 201.438 82.4311 201.338C82.5303 201.238 82.5861 201.102 82.5861 200.96C82.5861 200.818 82.5303 200.683 82.4311 200.582C82.3319 200.482 82.1972 200.426 82.0569 200.426H39.1944C39.0541 200.426 38.9195 200.482 38.8203 200.582C38.721 200.683 38.6653 200.818 38.6653 200.96C38.6653 201.102 38.721 201.238 38.8203 201.338C38.9195 201.438 39.0541 201.495 39.1944 201.495H44.2215V203.632H39.1944C39.0541 203.632 38.9195 203.688 38.8203 203.788C38.721 203.889 38.6653 204.025 38.6653 204.166C38.6653 204.308 38.721 204.444 38.8203 204.544C38.9195 204.644 39.0541 204.701 39.1944 204.701H44.2215V206.838H39.1944C39.0541 206.838 38.9195 206.894 38.8203 206.995C38.721 207.095 38.6653 207.231 38.6653 207.372C38.6653 207.514 38.721 207.65 38.8203 207.75C38.9195 207.851 39.0541 207.907 39.1944 207.907H44.2215V210.044H39.7236C39.4429 210.044 39.1738 210.157 38.9753 210.357C38.7768 210.558 38.6653 210.83 38.6653 211.113C38.6653 211.396 38.7768 211.668 38.9753 211.869C39.1738 212.069 39.4429 212.182 39.7236 212.182H44.0055C43.9743 212.267 43.9579 212.358 43.9569 212.449V219.93C43.9569 220.143 44.0406 220.346 44.1895 220.497C44.3383 220.647 44.5402 220.732 44.7507 220.732C44.9612 220.732 45.1631 220.647 45.312 220.497C45.4608 220.346 45.5444 220.143 45.5444 219.93V212.449C45.5435 212.358 45.5271 212.267 45.4959 212.182H75.7555C75.7243 212.267 75.7078 212.358 75.7069 212.449V219.93C75.7069 220.143 75.7906 220.346 75.9394 220.497C76.0883 220.647 76.2901 220.732 76.5007 220.732C76.7112 220.732 76.9131 220.647 77.0619 220.497C77.2108 220.346 77.2944 220.143 77.2944 219.93V212.449C77.2935 212.358 77.2771 212.267 77.2459 212.182H81.5277C81.8084 212.182 82.0776 212.069 82.2761 211.869C82.4746 211.668 82.5861 211.396 82.5861 211.113C82.5861 210.83 82.4746 210.558 82.2761 210.357C82.0776 210.157 81.8084 210.044 81.5277 210.044H77.0298V207.907H82.0569C82.1972 207.907 82.3319 207.851 82.4311 207.75C82.5303 207.65 82.5861 207.514 82.5861 207.372C82.5861 207.231 82.5303 207.095 82.4311 206.995C82.3319 206.894 82.1972 206.838 82.0569 206.838H77.0298V204.701H82.0569ZM45.2799 201.495H75.9715V203.632H45.2799V201.495ZM75.9715 210.044H45.2799V207.907H75.9715V210.044ZM75.9715 206.838H45.2799V204.701H75.9715V206.838Z" fill="#A2A2A2"/>
<path d="M345.405 192.529H0.329965C0.242453 192.529 0.158525 192.489 0.0966441 192.419C0.0347638 192.348 0 192.253 0 192.153C0 192.053 0.0347638 191.958 0.0966441 191.887C0.158525 191.816 0.242453 191.777 0.329965 191.777H345.405C345.493 191.777 345.577 191.816 345.639 191.887C345.701 191.958 345.735 192.053 345.735 192.153C345.735 192.253 345.701 192.348 345.639 192.419C345.577 192.489 345.493 192.529 345.405 192.529Z" fill="#E6E6E6"/>
<path d="M247.383 206.442H212.472C212.372 206.442 212.277 206.403 212.206 206.332C212.136 206.262 212.096 206.166 212.096 206.066C212.096 205.966 212.136 205.871 212.206 205.8C212.277 205.73 212.372 205.69 212.472 205.69H247.383C247.483 205.69 247.578 205.73 247.648 205.8C247.719 205.871 247.758 205.966 247.758 206.066C247.758 206.166 247.719 206.262 247.648 206.332C247.578 206.403 247.483 206.442 247.383 206.442Z" fill="#E6E6E6"/>
<path d="M270.014 69.3062C276.855 69.3062 282.402 63.7505 282.402 56.8971C282.402 50.0438 276.855 44.488 270.014 44.488C263.172 44.488 257.626 50.0438 257.626 56.8971C257.626 63.7505 263.172 69.3062 270.014 69.3062Z" fill="#E2F5ED"/>
<path d="M10.5003 95.8742C13.4539 86.6356 20.6659 79.4707 29.2188 75.2093C39.3668 70.1532 51.0279 69.5807 62.0465 71.5486C73.9411 73.6729 85.058 78.57 95.8188 83.9142C106.374 89.1561 116.758 94.6912 127.735 99.0231C149.649 107.659 172.876 112.478 196.411 113.273C217.595 113.981 240.244 111.656 258.383 99.7291C275.002 88.8008 285.578 70.7724 291.086 51.9797C291.791 49.5738 292.418 47.1473 292.966 44.7C293.126 43.9931 292.041 43.6913 291.88 44.4001C287.437 64.0244 277.963 83.42 261.775 95.9294C244.266 109.459 221.287 112.587 199.784 112.229C175.991 111.813 152.451 107.262 130.212 98.7805C118.953 94.4868 108.328 88.9114 97.568 83.5287C87.0443 78.2643 76.2249 73.3363 64.6526 70.9083C54.0856 68.6912 42.772 68.5561 32.5838 72.5013C24.1945 75.7499 16.5453 81.5403 12.0689 89.4613C10.9774 91.4026 10.0879 93.451 9.41438 95.5743C9.19283 96.2673 10.2798 96.564 10.5003 95.8742Z" fill="#E2F5ED"/>
<path d="M194.077 164.917C194.077 158.276 188.699 142.517 182.065 142.517C175.43 142.517 170.052 158.276 170.052 164.917C170.052 168.108 171.318 171.169 173.571 173.426C175.823 175.682 178.879 176.95 182.065 176.95C185.251 176.95 188.306 175.682 190.559 173.426C192.812 171.169 194.077 168.108 194.077 164.917H194.077Z" fill="#DCDDDC"/>
<path d="M191.074 164.917C191.074 158.276 185.696 142.517 179.062 142.517C172.427 142.517 167.049 158.276 167.049 164.917C167.049 168.108 168.315 171.169 170.567 173.426C172.82 175.682 175.876 176.95 179.062 176.95C182.248 176.95 185.303 175.682 187.556 173.426C189.809 171.169 191.074 168.108 191.074 164.917H191.074Z" fill="#EAECEB"/>
<path d="M179.437 191.822C179.337 191.822 179.242 191.783 179.171 191.712C179.101 191.642 179.062 191.546 179.062 191.446V157.927C179.062 157.827 179.101 157.731 179.171 157.661C179.242 157.59 179.337 157.551 179.437 157.551C179.536 157.551 179.632 157.59 179.702 157.661C179.773 157.731 179.812 157.827 179.812 157.927V191.446C179.812 191.546 179.773 191.642 179.702 191.712C179.632 191.783 179.536 191.822 179.437 191.822Z" fill="#CACACA"/>
<path d="M179.437 163.422C179.363 163.422 179.29 163.399 179.228 163.358C179.167 163.317 179.119 163.258 179.09 163.189C179.062 163.121 179.054 163.045 179.069 162.972C179.083 162.899 179.119 162.832 179.171 162.78L184.081 157.862C184.151 157.791 184.247 157.752 184.346 157.752C184.446 157.752 184.541 157.791 184.612 157.862C184.682 157.932 184.721 158.028 184.721 158.128C184.721 158.227 184.682 158.323 184.612 158.394L179.702 163.311C179.667 163.346 179.626 163.374 179.581 163.393C179.535 163.412 179.486 163.422 179.437 163.422Z" fill="#CACACA"/>
<path d="M81.9426 63.4777H75.9363C75.4885 63.4772 75.0591 63.2988 74.7424 62.9815C74.4257 62.6643 74.2476 62.2342 74.2471 61.7856V47.8723C74.2476 47.4237 74.4257 46.9936 74.7424 46.6763C75.0591 46.3591 75.4885 46.1807 75.9363 46.1802H81.9426C82.3905 46.1807 82.8198 46.3591 83.1365 46.6763C83.4532 46.9936 83.6314 47.4237 83.6319 47.8723V61.7856C83.6314 62.2342 83.4532 62.6643 83.1365 62.9815C82.8198 63.2988 82.3905 63.4772 81.9426 63.4777Z" fill="#E2F5ED"/>
<path d="M105.592 193.209H74.8102C73.9642 193.208 73.1532 192.871 72.555 192.272C71.9568 191.673 71.6203 190.86 71.6194 190.013V65.5459C71.6203 64.6985 71.9568 63.886 72.555 63.2868C73.1532 62.6876 73.9642 62.3506 74.8102 62.3496H105.592C106.438 62.3506 107.249 62.6876 107.847 63.2868C108.446 63.886 108.782 64.6985 108.783 65.5459V190.013C108.782 190.86 108.446 191.673 107.847 192.272C107.249 192.871 106.438 193.208 105.592 193.209Z" fill="#E2F5ED"/>
<path d="M87.1982 193.209H56.4162C55.5702 193.208 54.7592 192.871 54.161 192.272C53.5628 191.673 53.2263 190.86 53.2253 190.013V65.5459C53.2263 64.6985 53.5628 63.886 54.161 63.2868C54.7592 62.6876 55.5702 62.3506 56.4162 62.3496H87.1982C88.0442 62.3506 88.8553 62.6876 89.4534 63.2868C90.0516 63.886 90.3881 64.6985 90.3891 65.5459V190.013C90.3881 190.86 90.0516 191.673 89.4534 192.272C88.8553 192.871 88.0442 193.208 87.1982 193.209Z" fill="#E2F5ED"/>
<path d="M76.3117 63.4777H70.3055C69.8576 63.4772 69.4282 63.2988 69.1115 62.9815C68.7948 62.6643 68.6167 62.2342 68.6162 61.7856V47.8723C68.6167 47.4237 68.7948 46.9936 69.1115 46.6763C69.4282 46.3591 69.8576 46.1807 70.3055 46.1802H76.3117C76.7596 46.1807 77.189 46.3591 77.5057 46.6763C77.8224 46.9936 78.0005 47.4237 78.001 47.8723V61.7856C78.0005 62.2342 77.8224 62.6643 77.5057 62.9815C77.189 63.2988 76.7596 63.4772 76.3117 63.4777Z" fill="#E2F5ED"/>
<path d="M68.4286 90.5521H61.2961C61.0473 90.5518 60.8088 90.4527 60.6329 90.2764C60.4569 90.1002 60.358 89.8613 60.3577 89.612V78.7071C60.358 78.4578 60.4569 78.2189 60.6329 78.0426C60.8088 77.8664 61.0473 77.7673 61.2961 77.767H68.4286C68.6774 77.7673 68.9159 77.8664 69.0919 78.0426C69.2678 78.2189 69.3668 78.4578 69.3671 78.7071V89.612C69.3668 89.8613 69.2678 90.1002 69.0919 90.2764C68.9159 90.4527 68.6774 90.5518 68.4286 90.5521Z" fill="#B9E5D1"/>
<path d="M82.318 90.5521H75.1855C74.9367 90.5518 74.6982 90.4527 74.5223 90.2764C74.3463 90.1002 74.2474 89.8613 74.2471 89.612V78.7071C74.2474 78.4578 74.3463 78.2189 74.5223 78.0426C74.6982 77.8664 74.9367 77.7673 75.1855 77.767H82.318C82.5668 77.7673 82.8053 77.8664 82.9813 78.0426C83.1572 78.2189 83.2562 78.4578 83.2565 78.7071V89.612C83.2562 89.8613 83.1572 90.1002 82.9813 90.2764C82.8053 90.4527 82.5668 90.5518 82.318 90.5521Z" fill="#B9E5D1"/>
<path d="M68.4286 110.482H61.2961C61.0473 110.482 60.8088 110.382 60.6329 110.206C60.4569 110.03 60.358 109.791 60.3577 109.542V98.6369C60.358 98.3876 60.4569 98.1487 60.6329 97.9724C60.8088 97.7962 61.0473 97.6971 61.2961 97.6968H68.4286C68.6774 97.6971 68.9159 97.7962 69.0919 97.9724C69.2678 98.1487 69.3668 98.3876 69.3671 98.6369V109.542C69.3668 109.791 69.2678 110.03 69.0919 110.206C68.9159 110.382 68.6774 110.482 68.4286 110.482Z" fill="#B9E5D1"/>
<path d="M82.318 110.482H75.1855C74.9367 110.482 74.6982 110.382 74.5223 110.206C74.3463 110.03 74.2474 109.791 74.2471 109.542V98.6369C74.2474 98.3876 74.3463 98.1487 74.5223 97.9724C74.6982 97.7962 74.9367 97.6971 75.1855 97.6968H82.318C82.5668 97.6971 82.8053 97.7962 82.9813 97.9724C83.1572 98.1487 83.2562 98.3876 83.2565 98.6369V109.542C83.2562 109.791 83.1572 110.03 82.9813 110.206C82.8053 110.382 82.5668 110.482 82.318 110.482Z" fill="#B9E5D1"/>
<path d="M68.4286 130.412H61.2961C61.0473 130.411 60.8088 130.312 60.6329 130.136C60.4569 129.96 60.358 129.721 60.3577 129.472V118.567C60.358 118.317 60.4569 118.078 60.6329 117.902C60.8088 117.726 61.0473 117.627 61.2961 117.626H68.4286C68.6774 117.627 68.9159 117.726 69.0919 117.902C69.2678 118.078 69.3668 118.317 69.3671 118.567V129.472C69.3668 129.721 69.2678 129.96 69.0919 130.136C68.9159 130.312 68.6774 130.411 68.4286 130.412Z" fill="#B9E5D1"/>
<path d="M82.318 130.412H75.1855C74.9367 130.411 74.6982 130.312 74.5223 130.136C74.3463 129.96 74.2474 129.721 74.2471 129.472V118.567C74.2474 118.317 74.3463 118.078 74.5223 117.902C74.6982 117.726 74.9367 117.627 75.1855 117.626H82.318C82.5668 117.627 82.8053 117.726 82.9813 117.902C83.1572 118.078 83.2562 118.317 83.2565 118.567V129.472C83.2562 129.721 83.1572 129.96 82.9813 130.136C82.8053 130.312 82.5668 130.411 82.318 130.412Z" fill="#B9E5D1"/>
<path d="M68.4286 150.342H61.2961C61.0473 150.341 60.8088 150.242 60.6329 150.066C60.4569 149.89 60.358 149.651 60.3577 149.401V138.496C60.358 138.247 60.4569 138.008 60.6329 137.832C60.8088 137.656 61.0473 137.557 61.2961 137.556H68.4286C68.6774 137.557 68.9159 137.656 69.0919 137.832C69.2678 138.008 69.3668 138.247 69.3671 138.496V149.401C69.3668 149.651 69.2678 149.89 69.0919 150.066C68.9159 150.242 68.6774 150.341 68.4286 150.342Z" fill="#B9E5D1"/>
<path d="M82.318 150.342H75.1855C74.9367 150.341 74.6982 150.242 74.5223 150.066C74.3463 149.89 74.2474 149.651 74.2471 149.401V138.496C74.2474 138.247 74.3463 138.008 74.5223 137.832C74.6982 137.656 74.9367 137.557 75.1855 137.556H82.318C82.5668 137.557 82.8053 137.656 82.9813 137.832C83.1572 138.008 83.2562 138.247 83.2565 138.496V149.401C83.2562 149.651 83.1572 149.89 82.9813 150.066C82.8053 150.242 82.5668 150.341 82.318 150.342Z" fill="#B9E5D1"/>
<path d="M68.4286 170.271H61.2961C61.0473 170.271 60.8088 170.172 60.6329 169.996C60.4569 169.819 60.358 169.58 60.3577 169.331V158.426C60.358 158.177 60.4569 157.938 60.6329 157.762C60.8088 157.586 61.0473 157.486 61.2961 157.486H68.4286C68.6774 157.486 68.9159 157.586 69.0919 157.762C69.2678 157.938 69.3668 158.177 69.3671 158.426V169.331C69.3668 169.58 69.2678 169.819 69.0919 169.996C68.9159 170.172 68.6774 170.271 68.4286 170.271Z" fill="#B9E5D1"/>
<path d="M82.318 170.271H75.1855C74.9367 170.271 74.6982 170.172 74.5223 169.996C74.3463 169.819 74.2474 169.58 74.2471 169.331V158.426C74.2474 158.177 74.3463 157.938 74.5223 157.762C74.6982 157.586 74.9367 157.486 75.1855 157.486H82.318C82.5668 157.486 82.8053 157.586 82.9813 157.762C83.1572 157.938 83.2562 158.177 83.2565 158.426V169.331C83.2562 169.58 83.1572 169.819 82.9813 169.996C82.8053 170.172 82.5668 170.271 82.318 170.271Z" fill="#B9E5D1"/>
<path d="M236.979 129.283H230.973C230.525 129.283 230.096 129.104 229.779 128.787C229.462 128.47 229.284 128.04 229.284 127.591V119.695C229.284 119.246 229.462 118.816 229.779 118.499C230.096 118.181 230.525 118.003 230.973 118.002H236.979C237.427 118.003 237.856 118.181 238.173 118.499C238.49 118.816 238.668 119.246 238.668 119.695V127.591C238.668 128.04 238.49 128.47 238.173 128.787C237.856 129.104 237.427 129.283 236.979 129.283Z" fill="#E2F5ED"/>
<path d="M287.657 193.585H256.875C256.029 193.584 255.218 193.247 254.62 192.648C254.022 192.049 253.685 191.236 253.684 190.389V130.6C253.685 129.752 254.022 128.94 254.62 128.341C255.218 127.741 256.029 127.404 256.875 127.403H287.657C288.503 127.404 289.314 127.741 289.912 128.341C290.51 128.94 290.847 129.752 290.848 130.6V190.389C290.847 191.236 290.51 192.049 289.912 192.648C289.314 193.247 288.503 193.584 287.657 193.585Z" fill="#E2F5ED"/>
<path d="M269.263 193.585H215.957C215.111 193.584 214.3 193.247 213.702 192.648C213.104 192.049 212.768 191.236 212.767 190.389V130.6C212.768 129.752 213.104 128.94 213.702 128.341C214.3 127.741 215.111 127.404 215.957 127.403H269.263C270.109 127.404 270.92 127.741 271.518 128.341C272.116 128.94 272.453 129.752 272.454 130.6V190.389C272.453 191.236 272.116 192.049 271.518 192.648C270.92 193.247 270.109 193.584 269.263 193.585Z" fill="#E2F5ED"/>
<path d="M231.348 129.283H225.342C224.894 129.283 224.465 129.104 224.148 128.787C223.831 128.47 223.653 128.04 223.653 127.591V119.695C223.653 119.246 223.831 118.816 224.148 118.499C224.465 118.181 224.894 118.003 225.342 118.002H231.348C231.796 118.003 232.226 118.181 232.542 118.499C232.859 118.816 233.037 119.246 233.038 119.695V127.591C233.037 128.04 232.859 128.47 232.542 128.787C232.226 129.104 231.796 129.283 231.348 129.283Z" fill="#E2F5ED"/>
<path d="M239.232 156.922H232.099C231.85 156.922 231.612 156.823 231.436 156.646C231.26 156.47 231.161 156.231 231.161 155.982V145.077C231.161 144.828 231.26 144.589 231.436 144.413C231.612 144.236 231.85 144.137 232.099 144.137H239.232C239.48 144.137 239.719 144.236 239.895 144.413C240.071 144.589 240.17 144.828 240.17 145.077V155.982C240.17 156.231 240.071 156.47 239.895 156.646C239.719 156.823 239.48 156.922 239.232 156.922Z" fill="#B9E5D1"/>
<path d="M253.121 156.922H245.989C245.74 156.922 245.501 156.823 245.325 156.646C245.15 156.47 245.051 156.231 245.05 155.982V145.077C245.051 144.828 245.15 144.589 245.325 144.413C245.501 144.236 245.74 144.137 245.989 144.137H253.121C253.37 144.137 253.609 144.236 253.784 144.413C253.96 144.589 254.059 144.828 254.06 145.077V155.982C254.059 156.231 253.96 156.47 253.784 156.646C253.609 156.823 253.37 156.922 253.121 156.922Z" fill="#B9E5D1"/>
<path d="M239.232 176.852H232.099C231.85 176.851 231.612 176.752 231.436 176.576C231.26 176.4 231.161 176.161 231.161 175.912V165.007C231.161 164.757 231.26 164.519 231.436 164.342C231.612 164.166 231.85 164.067 232.099 164.067H239.232C239.48 164.067 239.719 164.166 239.895 164.342C240.071 164.519 240.17 164.757 240.17 165.007V175.912C240.17 176.161 240.071 176.4 239.895 176.576C239.719 176.752 239.48 176.851 239.232 176.852Z" fill="#B9E5D1"/>
<path d="M253.121 176.852H245.989C245.74 176.851 245.501 176.752 245.325 176.576C245.15 176.4 245.051 176.161 245.05 175.912V165.007C245.051 164.757 245.15 164.519 245.325 164.342C245.501 164.166 245.74 164.067 245.989 164.067H253.121C253.37 164.067 253.609 164.166 253.784 164.342C253.96 164.519 254.059 164.757 254.06 165.007V175.912C254.059 176.161 253.96 176.4 253.784 176.576C253.609 176.752 253.37 176.851 253.121 176.852Z" fill="#B9E5D1"/>
<path d="M180.939 35.2429C180.939 36.0185 180.914 36.7909 180.864 37.5541C180.58 41.9651 179.464 46.2827 177.576 50.28C177.561 50.314 177.545 50.3483 177.53 50.3792C177.443 50.5653 177.353 50.7485 177.26 50.9315C174.395 56.6847 170.012 61.547 164.585 64.9941C159.157 68.4411 152.891 70.3421 146.462 70.4918L146.813 90.5455L151.361 88.1504L152.175 89.6956L146.847 92.4969L147.465 127.87L147.496 191.965H144.009L144.044 127.87L145.102 70.495C140.443 70.4286 135.844 69.4379 131.571 67.5803C127.298 65.7226 123.437 63.0352 120.213 59.674C119.989 59.4444 119.772 59.2087 119.555 58.9728C119.545 58.9636 119.539 58.9542 119.533 58.948C116.845 56.0201 114.671 52.6595 113.103 49.008C113.137 49.0484 113.175 49.0825 113.209 49.1228C109.665 40.8446 109.425 31.5256 112.536 23.0758C115.647 14.626 121.875 7.68533 129.943 3.67637C130.064 3.61745 130.191 3.55837 130.312 3.49641C138.292 -0.344503 147.425 -1.04909 155.9 1.52232C164.375 4.09373 171.575 9.75342 176.07 17.3795C176.285 17.7392 176.493 18.1086 176.691 18.4777C179.485 23.6243 180.945 29.3879 180.939 35.2429Z" fill="#E2F5ED"/>
<path opacity="0.1" d="M283.86 225.89C283.86 225.947 283.817 226.021 283.687 226.109C283.56 226.194 283.367 226.28 283.111 226.363C282.601 226.529 281.859 226.679 280.937 226.806C279.095 227.06 276.547 227.217 273.731 227.217C270.915 227.217 268.367 227.06 266.525 226.806C265.603 226.679 264.861 226.529 264.351 226.363C264.095 226.28 263.902 226.194 263.775 226.109C263.645 226.021 263.602 225.947 263.602 225.89C263.602 225.834 263.645 225.759 263.775 225.672C263.902 225.586 264.095 225.501 264.351 225.417C264.861 225.252 265.603 225.101 266.525 224.974C268.367 224.721 270.915 224.564 273.731 224.564C276.547 224.564 279.095 224.721 280.937 224.974C281.859 225.101 282.601 225.252 283.111 225.417C283.367 225.501 283.56 225.586 283.687 225.672C283.817 225.759 283.86 225.834 283.86 225.89Z" fill="#08B783" stroke="#B9E5D1" stroke-width="0.15479"/>
<path opacity="0.1" d="M322.955 229.861C322.955 229.918 322.913 229.992 322.782 230.08C322.655 230.166 322.462 230.251 322.207 230.334C321.697 230.5 320.954 230.651 320.033 230.777C318.19 231.031 315.642 231.188 312.826 231.188C310.01 231.188 307.462 231.031 305.62 230.777C304.698 230.651 303.956 230.5 303.446 230.334C303.19 230.251 302.998 230.166 302.87 230.08C302.74 229.992 302.697 229.918 302.697 229.861C302.697 229.805 302.74 229.731 302.87 229.643C302.998 229.557 303.19 229.472 303.446 229.389C303.956 229.223 304.698 229.072 305.62 228.946C307.462 228.692 310.01 228.535 312.826 228.535C315.642 228.535 318.19 228.692 320.033 228.946C320.954 229.072 321.697 229.223 322.207 229.389C322.462 229.472 322.655 229.557 322.782 229.643C322.913 229.731 322.955 229.805 322.955 229.861Z" fill="#08B783" stroke="#B9E5D1" stroke-width="0.15479"/>
<path opacity="0.1" d="M304.356 241.168C304.356 241.196 304.334 241.243 304.243 241.304C304.155 241.363 304.02 241.423 303.839 241.482C303.479 241.6 302.953 241.706 302.298 241.796C300.989 241.976 299.179 242.088 297.178 242.088C295.177 242.088 293.367 241.976 292.059 241.796C291.404 241.706 290.878 241.6 290.517 241.482C290.336 241.423 290.202 241.363 290.114 241.304C290.022 241.243 290 241.196 290 241.168C290 241.139 290.022 241.092 290.114 241.031C290.202 240.972 290.336 240.912 290.517 240.853C290.878 240.735 291.404 240.629 292.059 240.539C293.367 240.359 295.177 240.247 297.178 240.247C299.179 240.247 300.989 240.359 302.298 240.539C302.953 240.629 303.479 240.735 303.839 240.853C304.02 240.912 304.155 240.972 304.243 241.031C304.334 241.092 304.356 241.139 304.356 241.168Z" fill="#08B783" stroke="#B9E5D1" stroke-width="0.15479"/>
<path opacity="0.1" d="M344.932 240.17C344.932 240.198 344.911 240.245 344.819 240.307C344.731 240.366 344.596 240.426 344.416 240.485C344.055 240.602 343.529 240.709 342.874 240.799C341.566 240.979 339.756 241.09 337.754 241.09C335.753 241.09 333.943 240.979 332.635 240.799C331.98 240.709 331.454 240.602 331.093 240.485C330.912 240.426 330.778 240.366 330.69 240.307C330.598 240.245 330.577 240.198 330.577 240.17C330.577 240.141 330.598 240.094 330.69 240.033C330.778 239.974 330.912 239.914 331.093 239.855C331.454 239.738 331.98 239.631 332.635 239.541C333.943 239.361 335.753 239.249 337.754 239.249C339.756 239.249 341.566 239.361 342.874 239.541C343.529 239.631 344.055 239.738 344.416 239.855C344.596 239.914 344.731 239.974 344.819 240.033C344.911 240.094 344.932 240.141 344.932 240.17Z" fill="#08B783" stroke="#B9E5D1" stroke-width="0.15479"/>
<path d="M348.001 153.134L348.002 153.134C349.62 153.566 351.125 154.344 352.413 155.416C353.701 156.488 354.741 157.828 355.461 159.342C356.553 161.703 357.001 164.797 355.246 168.425C353.489 172.056 349.52 176.229 341.759 180.73C328.739 188.281 321.821 197.238 318.158 204.31C316.327 207.846 315.31 210.91 314.75 213.091C314.471 214.182 314.305 215.051 314.21 215.649C314.162 215.948 314.132 216.179 314.114 216.335C314.104 216.413 314.098 216.473 314.094 216.513L314.09 216.558L314.089 216.57L314.089 216.573L314.089 216.573L314.089 216.574L313.004 229.132C312.991 229.089 312.978 229.043 312.963 228.993C312.863 228.644 312.717 228.131 312.538 227.47C312.179 226.149 311.685 224.24 311.143 221.891C310.06 217.192 308.789 210.731 308.035 203.683C307.281 196.634 307.044 189 308.029 181.955C309.014 174.908 311.22 168.457 315.344 163.767C327.701 149.713 341.721 151.396 348.001 153.134Z" fill="#08B783" stroke="#B9E5D1" stroke-width="0.15479"/>
<path d="M345.78 159.726C345.78 159.726 303.586 172.942 313.045 229.547L345.78 159.726Z" fill="#08B783"/>
<path d="M345.78 159.726C345.78 159.726 303.586 172.942 313.045 229.547" stroke="#B9E5D1" stroke-width="0.15479" stroke-miterlimit="10"/>
<path d="M321.136 164.463C321.136 164.463 326.946 168.386 325.099 174.279L321.136 164.463Z" fill="#08B783"/>
<path d="M321.136 164.463C321.136 164.463 326.946 168.386 325.099 174.279" stroke="#B9E5D1" stroke-width="0.15479" stroke-miterlimit="10"/>
<path d="M341.549 167.954C341.549 167.954 337.997 164.335 333.674 166.332L341.549 167.954Z" fill="#08B783"/>
<path d="M341.549 167.954C341.549 167.954 337.997 164.335 333.674 166.332" stroke="#B9E5D1" stroke-width="0.15479" stroke-miterlimit="10"/>
<path d="M324.87 186.158C324.87 186.158 318.633 182.987 317.02 186.958L324.87 186.158Z" fill="#08B783"/>
<path d="M324.87 186.158C324.87 186.158 318.633 182.987 317.02 186.958" stroke="#B9E5D1" stroke-width="0.15479" stroke-miterlimit="10"/>
<path d="M336.504 209.467L336.503 209.468C334.14 214.9 327.803 225.204 312.615 229.795C312.644 229.736 312.681 229.661 312.726 229.571C312.849 229.322 313.032 228.955 313.265 228.489C313.733 227.556 314.405 226.225 315.227 224.63C316.87 221.439 319.109 217.193 321.492 212.971C323.875 208.748 326.401 204.551 328.617 201.457C329.726 199.909 330.755 198.641 331.649 197.783C332.097 197.354 332.507 197.03 332.875 196.826C333.244 196.621 333.561 196.54 333.824 196.583C334.892 196.756 335.674 197.369 336.247 198.209C336.822 199.052 337.185 200.121 337.412 201.199C337.974 203.982 337.656 206.872 336.504 209.467Z" fill="#08B783" stroke="#B9E5D1" stroke-width="0.15479"/>
<path d="M333.712 202.99C333.712 202.99 316.115 228.549 312.716 229.671L333.712 202.99Z" fill="#08B783"/>
<path d="M333.712 202.99C333.712 202.99 316.115 228.549 312.716 229.671" stroke="#B9E5D1" stroke-width="0.15479" stroke-miterlimit="10"/>
<path d="M312.816 229.795C297.628 225.204 291.291 214.9 288.928 209.468L288.928 209.467C287.775 206.872 287.458 203.982 288.02 201.199C288.246 200.121 288.609 199.052 289.184 198.209C289.757 197.369 290.539 196.756 291.607 196.583C291.871 196.54 292.187 196.621 292.556 196.826C292.924 197.03 293.335 197.354 293.782 197.783C294.676 198.641 295.705 199.909 296.814 201.457C299.031 204.551 301.556 208.748 303.939 212.971C306.322 217.193 308.561 221.439 310.204 224.63C311.026 226.225 311.699 227.556 312.166 228.489C312.4 228.955 312.582 229.322 312.706 229.571C312.75 229.661 312.787 229.736 312.816 229.795Z" fill="#08B783" stroke="#B9E5D1" stroke-width="0.15479"/>
<path d="M291.72 202.99C291.72 202.99 309.316 228.549 312.716 229.671L291.72 202.99Z" fill="#08B783"/>
<path d="M291.72 202.99C291.72 202.99 309.316 228.549 312.716 229.671" stroke="#B9E5D1" stroke-width="0.15479" stroke-miterlimit="10"/>
<path d="M341.701 237.839L341.701 237.839L341.698 237.842C341.029 238.453 340.282 238.971 339.475 239.382H335.901C335.88 239.325 335.854 239.27 335.824 239.217L335.825 239.216L335.821 239.212C335.505 238.733 335.085 238.331 334.593 238.038L334.593 238.038L334.59 238.036C333.964 237.691 333.401 237.239 332.927 236.702C332.706 236.438 332.58 236.106 332.569 235.761C332.558 235.418 332.661 235.082 332.862 234.805C333.075 234.627 333.324 234.496 333.59 234.42C333.86 234.344 334.143 234.325 334.421 234.365L334.421 234.366L334.435 234.365C334.768 234.355 335.098 234.432 335.392 234.589C335.607 234.765 335.777 234.992 335.886 235.248C335.995 235.507 336.04 235.789 336.016 236.069C335.96 236.658 335.968 237.252 336.04 237.84L336.194 237.831C336.201 236.25 336.563 234.524 337.824 233.635C338.019 233.497 338.263 233.392 338.495 233.365C338.726 233.337 338.937 233.387 339.085 233.544C339.193 233.675 339.264 233.833 339.291 234.001L339.291 234.001L339.291 234.004C339.377 234.434 339.349 234.879 339.212 235.295C339.075 235.711 338.832 236.084 338.508 236.379L338.386 236.49L338.549 236.512C338.897 236.561 339.22 236.453 339.513 236.284C339.806 236.115 340.078 235.88 340.325 235.666C340.571 235.453 340.851 235.245 341.143 235.119C341.433 234.994 341.726 234.952 342.006 235.058C342.251 235.182 342.446 235.386 342.56 235.636C342.674 235.887 342.698 236.169 342.629 236.436C342.469 236.987 342.145 237.476 341.701 237.839Z" fill="#08B783" stroke="#B9E5D1" stroke-width="0.15479"/>
<path d="M277.821 224.08L277.821 224.08L277.817 224.083C277.149 224.694 276.401 225.212 275.595 225.623H272.021C272 225.566 271.974 225.511 271.944 225.458L271.944 225.458L271.941 225.453C271.625 224.974 271.205 224.573 270.713 224.279L270.713 224.279L270.71 224.278C270.084 223.932 269.521 223.481 269.047 222.944C268.826 222.679 268.7 222.347 268.689 222.002C268.678 221.659 268.781 221.323 268.982 221.046C269.195 220.868 269.443 220.738 269.71 220.662C269.98 220.585 270.263 220.566 270.541 220.606L270.541 220.607L270.555 220.607C270.888 220.596 271.218 220.673 271.512 220.83C271.727 221.007 271.897 221.233 272.005 221.49C272.115 221.748 272.16 222.03 272.136 222.31C272.079 222.9 272.087 223.493 272.16 224.081L272.314 224.072C272.321 222.491 272.682 220.765 273.944 219.876C274.139 219.739 274.383 219.634 274.615 219.606C274.846 219.579 275.057 219.628 275.205 219.785C275.313 219.916 275.384 220.074 275.411 220.242L275.41 220.242L275.411 220.246C275.496 220.675 275.469 221.12 275.332 221.536C275.195 221.952 274.952 222.325 274.628 222.62L274.506 222.731L274.669 222.754C275.017 222.802 275.339 222.695 275.633 222.525C275.926 222.356 276.198 222.121 276.445 221.907C276.691 221.694 276.971 221.487 277.263 221.361C277.552 221.235 277.846 221.193 278.126 221.299C278.371 221.423 278.566 221.627 278.68 221.877C278.793 222.128 278.818 222.41 278.749 222.677C278.589 223.228 278.265 223.718 277.821 224.08Z" fill="#08B783" stroke="#B9E5D1" stroke-width="0.15479"/>
<path d="M299.111 237.839L299.111 237.839L299.107 237.842C298.439 238.453 297.692 238.971 296.885 239.382H293.311C293.29 239.325 293.264 239.27 293.234 239.217L293.234 239.216L293.231 239.212C292.915 238.733 292.495 238.331 292.003 238.038L292.003 238.038L292 238.036C291.374 237.691 290.811 237.239 290.337 236.702C290.116 236.438 289.99 236.106 289.979 235.761C289.968 235.418 290.071 235.082 290.272 234.805C290.485 234.627 290.733 234.496 291 234.42C291.27 234.344 291.553 234.325 291.831 234.365L291.831 234.366L291.845 234.365C292.178 234.355 292.508 234.432 292.802 234.589C293.017 234.765 293.187 234.992 293.295 235.248C293.405 235.507 293.45 235.789 293.426 236.069C293.369 236.658 293.378 237.252 293.45 237.84L293.604 237.831C293.611 236.25 293.973 234.524 295.234 233.635C295.429 233.497 295.673 233.392 295.905 233.365C296.136 233.337 296.347 233.387 296.495 233.544C296.603 233.675 296.674 233.833 296.701 234.001L296.701 234.001L296.701 234.004C296.786 234.434 296.759 234.879 296.622 235.295C296.485 235.711 296.242 236.084 295.918 236.379L295.796 236.49L295.959 236.512C296.307 236.561 296.63 236.453 296.923 236.284C297.216 236.115 297.488 235.88 297.735 235.666C297.981 235.453 298.261 235.245 298.553 235.119C298.842 234.994 299.136 234.952 299.416 235.058C299.661 235.182 299.856 235.386 299.97 235.636C300.084 235.887 300.108 236.169 300.039 236.436C299.879 236.987 299.555 237.476 299.111 237.839Z" fill="#08B783" stroke="#B9E5D1" stroke-width="0.15479"/>
<path d="M21.0858 236.286C21.0858 236.286 25.7219 220.519 20.2149 208.911C17.8742 204.058 17.1682 198.576 18.2028 193.287C18.7135 190.78 19.4524 188.326 20.4101 185.954" stroke="#A2A2A2" stroke-width="0.15479" stroke-miterlimit="10"/>
<path d="M16.9902 178.618C16.9902 180.55 20.4851 186.138 20.4851 186.138C20.4851 186.138 23.98 180.535 23.98 178.618C23.9503 177.709 23.5693 176.848 22.9174 176.217C22.2656 175.585 21.3941 175.231 20.487 175.231C19.5799 175.231 18.7084 175.585 18.0566 176.217C17.4048 176.848 17.0237 177.709 16.994 178.618H16.9902Z" fill="#08B783"/>
<path d="M11.2131 189.323C12.2604 190.944 18.2329 193.749 18.2329 193.749C18.2329 193.749 18.124 187.142 17.0767 185.522C16.557 184.781 15.771 184.271 14.8838 184.098C13.9967 183.926 13.0773 184.104 12.3186 184.596C11.5599 185.088 11.0209 185.855 10.8148 186.737C10.6087 187.618 10.7514 188.545 11.2131 189.323Z" fill="#08B783"/>
<path d="M11.4684 207.617C13.1915 208.486 19.7608 207.888 19.7608 207.888C19.7608 207.888 16.3372 202.248 14.6142 201.371C14.2031 201.15 13.7518 201.013 13.287 200.968C12.8221 200.924 12.3531 200.974 11.9077 201.114C11.4623 201.254 11.0495 201.483 10.6936 201.786C10.3378 202.088 10.0461 202.46 9.83591 202.877C9.62568 203.295 9.50114 203.751 9.46963 204.217C9.43813 204.684 9.5003 205.152 9.65247 205.594C9.80465 206.037 10.0437 206.444 10.3556 206.792C10.6675 207.14 11.0459 207.422 11.4684 207.621V207.617Z" fill="#08B783"/>
<path d="M14.768 221.414C16.3184 222.565 22.8952 223.084 22.8952 223.084C22.8952 223.084 20.474 216.939 18.9236 215.789C18.5539 215.515 18.134 215.318 17.688 215.207C17.242 215.096 16.7786 215.074 16.3242 215.143C15.8698 215.212 15.4334 215.369 15.0398 215.607C14.6462 215.844 14.3032 216.157 14.0304 216.528C13.7575 216.898 13.5602 217.318 13.4496 217.765C13.339 218.212 13.3173 218.676 13.3858 219.131C13.4543 219.587 13.6116 220.024 13.8488 220.418C14.0859 220.812 14.3983 221.156 14.768 221.429V221.414Z" fill="#08B783"/>
<path d="M25.5719 194.122C24.1867 195.468 17.7412 196.863 17.7412 196.863C17.7412 196.863 19.3216 190.448 20.7031 189.102C21.3676 188.453 22.262 188.096 23.1896 188.108C24.1171 188.121 25.0017 188.502 25.6488 189.167C26.296 189.833 26.6526 190.729 26.6403 191.658C26.628 192.587 26.2477 193.473 25.5831 194.122H25.5719Z" fill="#08B783"/>
<path d="M29.2282 210.306C27.5051 211.175 20.9358 210.577 20.9358 210.577C20.9358 210.577 24.3594 204.936 26.0824 204.06C26.9062 203.672 27.8488 203.621 28.7096 203.918C29.5703 204.215 30.2813 204.837 30.6912 205.652C31.1011 206.466 31.1776 207.408 30.9044 208.278C30.6311 209.148 30.0297 209.877 29.2282 210.31V210.306Z" fill="#08B783"/>
<path d="M30.6282 226.528C29.0778 227.679 22.501 228.198 22.501 228.198C22.501 228.198 24.9222 222.053 26.4726 220.903C27.2193 220.351 28.1543 220.118 29.072 220.257C29.9897 220.396 30.8148 220.894 31.3658 221.642C31.9169 222.39 32.1488 223.326 32.0104 224.245C31.8721 225.165 31.3749 225.991 30.6282 226.543V226.528Z" fill="#08B783"/>
</svg>
