<svg width="18" height="18" viewBox="0 0 18 18" fill="none" xmlns="http://www.w3.org/2000/svg">
<path fill-rule="evenodd" clip-rule="evenodd" d="M9.00014 2.64764C11.4854 2.64764 13.5001 4.66237 13.5001 7.14765V7.4187C13.5001 8.4131 13.1894 9.38265 12.6115 10.1918L9.00903 15.2352C9.00467 15.2413 8.9956 15.2413 8.99125 15.2352L5.38881 10.1918C4.81083 9.38265 4.50012 8.4131 4.50012 7.4187V7.14765C4.50012 4.66236 6.51485 2.64764 9.00014 2.64764ZM10.9765 6.72339C10.8392 6.12193 10.4355 5.61572 9.8797 5.34805C9.32387 5.08038 8.6764 5.08038 8.12057 5.34805C7.56474 5.61572 7.16105 6.12193 7.02378 6.72339C6.8865 7.32484 7.03057 7.95608 7.41522 8.43841C7.79986 8.92074 8.38321 9.20166 9.00014 9.20166C9.61706 9.20166 10.2004 8.92074 10.5851 8.43841C10.9697 7.95608 11.1138 7.32484 10.9765 6.72339Z" fill="#414141"/>
<path d="M12.6115 10.1918L13.8457 11.0734V11.0734L12.6115 10.1918ZM9.00903 15.2352L7.7748 14.3536L7.77475 14.3537L9.00903 15.2352ZM8.99125 15.2352L10.2255 14.3537L10.2255 14.3536L8.99125 15.2352ZM5.38881 10.1918L4.15459 11.0734H4.15459L5.38881 10.1918ZM9.8797 5.34805L9.22161 6.71459L9.8797 5.34805ZM10.9765 6.72339L12.4552 6.38588L10.9765 6.72339ZM8.12057 5.34805L8.77866 6.71459L8.12057 5.34805ZM7.02378 6.72339L8.50249 7.0609L7.02378 6.72339ZM7.41522 8.43841L6.22938 9.38408L6.22938 9.38409L7.41522 8.43841ZM15.0169 7.14765C15.0169 3.82469 12.3231 1.13089 9.00014 1.13089V4.16439C10.6477 4.16439 11.9834 5.50004 11.9834 7.14765L15.0169 7.14765ZM15.0169 7.4187V7.14765L11.9834 7.14765V7.4187L15.0169 7.4187ZM13.8457 11.0734C14.6074 10.007 15.0169 8.72923 15.0169 7.4187L11.9834 7.4187C11.9834 8.09697 11.7715 8.7583 11.3772 9.31023L13.8457 11.0734ZM10.2433 16.1168L13.8457 11.0734L11.3772 9.31023L7.7748 14.3536L10.2433 16.1168ZM7.75697 16.1167C8.36623 16.9698 9.63405 16.9698 10.2433 16.1167L7.77475 14.3537C8.37529 13.5128 9.62498 13.5128 10.2255 14.3537L7.75697 16.1167ZM4.15459 11.0734L7.75702 16.1168L10.2255 14.3536L6.62304 9.31023L4.15459 11.0734ZM2.98338 7.4187C2.98338 8.72922 3.39286 10.007 4.15459 11.0734L6.62304 9.31023C6.2288 8.7583 6.01687 8.09697 6.01687 7.4187H2.98338ZM2.98338 7.14765V7.4187H6.01687V7.14765H2.98338ZM9.00014 1.13089C5.67717 1.13089 2.98338 3.82469 2.98338 7.14765H6.01687C6.01687 5.50004 7.35252 4.16439 9.00014 4.16439V1.13089ZM9.22161 6.71459C9.36156 6.78199 9.46321 6.90945 9.49778 7.0609L12.4552 6.38588C12.2152 5.33441 11.5095 4.44945 10.5378 3.98151L9.22161 6.71459ZM8.77866 6.71459C8.91862 6.64719 9.08165 6.64719 9.22161 6.71459L10.5378 3.98151C9.56609 3.51356 8.43418 3.51356 7.46248 3.98151L8.77866 6.71459ZM8.50249 7.0609C8.53706 6.90945 8.63871 6.78199 8.77866 6.71459L7.46248 3.98151C6.49078 4.44945 5.78505 5.33441 5.54506 6.38588L8.50249 7.0609ZM8.60106 7.49273C8.5042 7.37128 8.46793 7.21234 8.50249 7.0609L5.54506 6.38588C5.30507 7.43735 5.55694 8.54087 6.22938 9.38408L8.60106 7.49273ZM9.00014 7.68492C8.8448 7.68492 8.69791 7.61418 8.60106 7.49273L6.22938 9.38409C6.90182 10.2273 7.92163 10.7184 9.00014 10.7184V7.68492ZM9.39921 7.49273C9.30236 7.61418 9.15548 7.68492 9.00014 7.68492V10.7184C10.0786 10.7184 11.0985 10.2273 11.7709 9.38408L9.39921 7.49273ZM9.49778 7.0609C9.53235 7.21234 9.49607 7.37128 9.39921 7.49273L11.7709 9.38408C12.4433 8.54088 12.6952 7.43735 12.4552 6.38588L9.49778 7.0609Z" fill="#414141"/>
</svg>
