<svg width="24" height="24" viewBox="0 0 24 24" fill="none" xmlns="http://www.w3.org/2000/svg">
<path d="M16.1088 13.7057C15.9747 13.6431 15.8419 13.5783 15.7104 13.5112C15.1683 13.2344 14.4855 13.435 14.2337 13.9892C13.887 14.7519 12.8851 14.9336 12.2927 14.3411L9.65038 11.6988C9.05793 11.1064 9.23959 10.1045 10.0023 9.75784C10.5275 9.51912 10.7125 8.86813 10.4383 8.36059C10.3224 8.14621 10.2127 7.92794 10.1092 7.70603C9.90268 7.26316 9.72342 6.81048 9.57163 6.35044C9.32136 5.59196 8.46026 5.16899 7.74861 5.5316L5.87315 6.48719C5.5644 6.64451 5.37282 6.96762 5.40302 7.31282C5.65718 10.2179 6.92679 12.9406 8.98885 15.0027C11.0509 17.0647 13.7736 18.3343 16.6787 18.5885C17.0241 18.6187 17.3475 18.427 17.5049 18.118L18.5123 16.1408C18.8795 15.4202 18.4411 14.5488 17.6689 14.3087C17.1384 14.1438 16.6172 13.9427 16.1088 13.7057Z" fill="#C2CCDE" fill-opacity="0.25" stroke="#414141" stroke-linecap="round" stroke-linejoin="round"/>
</svg>
