<svg width="375" height="210" viewBox="0 0 375 210" fill="none" xmlns="http://www.w3.org/2000/svg">
<path d="M312.677 208.074C312.677 208.074 368.376 183.3 367.079 133.318C365.784 83.3362 312.997 60.0939 277.16 90.9527C241.323 121.811 218.13 95.9342 199.564 69.8565C180.998 43.7794 139.58 10.8691 85.2394 26.0763C28.3146 42.0064 10.7977 99.6626 16.4361 138.137C20.4864 165.773 35.2988 189.204 55.4837 207.208C56.1401 207.793 56.8121 208.372 57.4999 208.942L312.677 208.074Z" fill="#E2F5ED"/>
<path d="M66.6913 101.481H39.048V137.057H66.6913V101.481Z" fill="#B9E5D1"/>
<path d="M257.169 83.0544H208.982V131.249H257.169V83.0544Z" fill="#B9E5D1"/>
<path d="M129.287 89.1258H101.644V124.702H129.287V89.1258Z" fill="#B9E5D1"/>
<path d="M181.589 108.381H153.946V143.956H181.589V108.381Z" fill="#B9E5D1"/>
<path d="M373.021 169.165H11.4047V122.485H373.021V169.165Z" fill="#B9E5D1"/>
<path d="M39.0481 86.9085H11.4047V122.485H39.0481V86.9085Z" fill="#B9E5D1"/>
<path d="M157.877 54.4058C157.877 64.3574 149.811 72.4242 139.861 72.4242C129.911 72.4242 121.845 64.3574 121.845 54.4058C121.845 44.4543 129.911 36.3875 139.861 36.3875C149.811 36.3875 157.877 44.4543 157.877 54.4058Z" fill="#E9EDFD"/>
<path d="M144.032 46.1473C144.032 48.4504 142.164 50.3179 139.862 50.3179C137.559 50.3179 135.692 48.4504 135.692 46.1473C135.692 43.8442 137.559 41.9768 139.862 41.9768C142.164 41.9768 144.032 43.8442 144.032 46.1473Z" fill="#E2F5ED"/>
<path d="M160.914 169.165H118.809V52.9325H160.914V169.165Z" fill="#8AD4B5"/>
<path d="M132.883 77.7323H124.511V61.2574H132.883V77.7323Z" fill="#B9E5D1"/>
<path d="M153.946 77.7323H145.575V61.2574H153.946V77.7323Z" fill="#B9E5D1"/>
<path d="M132.883 102.849H124.511V86.3746H132.883V102.849Z" fill="#B9E5D1"/>
<path d="M153.946 102.849H145.575V86.3746H153.946V102.849Z" fill="#B9E5D1"/>
<path d="M132.883 127.967H124.511V111.492H132.883V127.967Z" fill="#B9E5D1"/>
<path d="M153.946 127.967H145.575V111.492H153.946V127.967Z" fill="#B9E5D1"/>
<path d="M132.883 153.084H124.511V136.61H132.883V153.084Z" fill="#B9E5D1"/>
<path d="M153.946 153.084H145.575V136.61H153.946V153.084Z" fill="#B9E5D1"/>
<path d="M216.62 169.165H170.827V26.0677H216.62V169.165Z" fill="#8AD4B5"/>
<path d="M181.587 42.4902H175.343V36.2454H181.587V42.4902Z" fill="#B9E5D1"/>
<path d="M196.846 42.4902H190.602V36.2454H196.846V42.4902Z" fill="#B9E5D1"/>
<path d="M212.104 42.4902H205.86V36.2454H212.104V42.4902Z" fill="#B9E5D1"/>
<path d="M181.587 53.521H175.343V47.2762H181.587V53.521Z" fill="#B9E5D1"/>
<path d="M196.846 53.521H190.602V47.2762H196.846V53.521Z" fill="#B9E5D1"/>
<path d="M212.104 53.521H205.86V47.2762H212.104V53.521Z" fill="#B9E5D1"/>
<path d="M181.587 64.5517H175.343V58.307H181.587V64.5517Z" fill="#B9E5D1"/>
<path d="M196.846 64.5517H190.602V58.307H196.846V64.5517Z" fill="#B9E5D1"/>
<path d="M212.104 64.5517H205.86V58.307H212.104V64.5517Z" fill="#B9E5D1"/>
<path d="M181.587 75.583H175.343V69.3377H181.587V75.583Z" fill="#B9E5D1"/>
<path d="M196.846 75.583H190.602V69.3377H196.846V75.583Z" fill="#B9E5D1"/>
<path d="M212.104 75.583H205.86V69.3377H212.104V75.583Z" fill="#B9E5D1"/>
<path d="M181.587 86.6132H175.343V80.3685H181.587V86.6132Z" fill="#B9E5D1"/>
<path d="M196.846 86.6132H190.602V80.3685H196.846V86.6132Z" fill="#B9E5D1"/>
<path d="M212.104 86.6132H205.86V80.3685H212.104V86.6132Z" fill="#B9E5D1"/>
<path d="M181.587 97.644H175.343V91.3987H181.587V97.644Z" fill="#B9E5D1"/>
<path d="M196.846 97.644H190.602V91.3987H196.846V97.644Z" fill="#B9E5D1"/>
<path d="M212.104 97.644H205.86V91.3987H212.104V97.644Z" fill="#B9E5D1"/>
<path d="M181.587 108.675H175.343V102.43H181.587V108.675Z" fill="#B9E5D1"/>
<path d="M196.846 108.675H190.602V102.43H196.846V108.675Z" fill="#B9E5D1"/>
<path d="M212.104 108.675H205.86V102.43H212.104V108.675Z" fill="#B9E5D1"/>
<path d="M181.587 119.705H175.343V113.461H181.587V119.705Z" fill="#B9E5D1"/>
<path d="M196.846 119.705H190.602V113.461H196.846V119.705Z" fill="#B9E5D1"/>
<path d="M212.104 119.705H205.86V113.461H212.104V119.705Z" fill="#B9E5D1"/>
<path d="M181.587 130.736H175.343V124.491H181.587V130.736Z" fill="#B9E5D1"/>
<path d="M196.846 130.736H190.602V124.491H196.846V130.736Z" fill="#B9E5D1"/>
<path d="M212.104 130.736H205.86V124.491H212.104V130.736Z" fill="#B9E5D1"/>
<path d="M181.587 141.767H175.343V135.522H181.587V141.767Z" fill="#B9E5D1"/>
<path d="M196.846 141.767H190.602V135.522H196.846V141.767Z" fill="#B9E5D1"/>
<path d="M212.104 141.767H205.86V135.522H212.104V141.767Z" fill="#B9E5D1"/>
<path d="M181.587 152.798H175.343V146.553H181.587V152.798Z" fill="#B9E5D1"/>
<path d="M196.846 152.798H190.602V146.553H196.846V152.798Z" fill="#B9E5D1"/>
<path d="M212.104 152.798H205.86V146.553H212.104V152.798Z" fill="#B9E5D1"/>
<path d="M362.612 208.696H316.819V65.5985H362.612V208.696Z" fill="#8AD4B5"/>
<path d="M327.58 82.021H321.335V75.7763H327.58V82.021Z" fill="#B9E5D1"/>
<path d="M342.838 82.021H336.594V75.7763H342.838V82.021Z" fill="#B9E5D1"/>
<path d="M358.096 82.021H351.852V75.7763H358.096V82.021Z" fill="#B9E5D1"/>
<path d="M327.58 93.0524H321.335V86.8076H327.58V93.0524Z" fill="#B9E5D1"/>
<path d="M342.838 93.0524H336.594V86.8076H342.838V93.0524Z" fill="#B9E5D1"/>
<path d="M358.096 93.0524H351.852V86.8076H358.096V93.0524Z" fill="#B9E5D1"/>
<path d="M327.58 104.083H321.335V97.8378H327.58V104.083Z" fill="#B9E5D1"/>
<path d="M342.838 104.083H336.594V97.8378H342.838V104.083Z" fill="#B9E5D1"/>
<path d="M358.096 104.083H351.852V97.8378H358.096V104.083Z" fill="#B9E5D1"/>
<path d="M327.58 115.113H321.335V108.869H327.58V115.113Z" fill="#B9E5D1"/>
<path d="M342.838 115.113H336.594V108.869H342.838V115.113Z" fill="#B9E5D1"/>
<path d="M358.096 115.113H351.852V108.869H358.096V115.113Z" fill="#B9E5D1"/>
<path d="M327.58 126.145H321.335V119.899H327.58V126.145Z" fill="#B9E5D1"/>
<path d="M342.838 126.145H336.594V119.899H342.838V126.145Z" fill="#B9E5D1"/>
<path d="M358.096 126.145H351.852V119.899H358.096V126.145Z" fill="#B9E5D1"/>
<path d="M327.58 137.175H321.335V130.93H327.58V137.175Z" fill="#B9E5D1"/>
<path d="M342.838 137.175H336.594V130.93H342.838V137.175Z" fill="#B9E5D1"/>
<path d="M358.096 137.175H351.852V130.93H358.096V137.175Z" fill="#B9E5D1"/>
<path d="M327.58 148.206H321.335V141.961H327.58V148.206Z" fill="#B9E5D1"/>
<path d="M342.838 148.206H336.594V141.961H342.838V148.206Z" fill="#B9E5D1"/>
<path d="M358.096 148.206H351.852V141.961H358.096V148.206Z" fill="#B9E5D1"/>
<path d="M327.58 159.237H321.335V152.992H327.58V159.237Z" fill="#B9E5D1"/>
<path d="M342.838 159.237H336.594V152.992H342.838V159.237Z" fill="#B9E5D1"/>
<path d="M358.096 159.237H351.852V152.992H358.096V159.237Z" fill="#B9E5D1"/>
<path d="M327.58 170.267H321.335V164.022H327.58V170.267Z" fill="#B9E5D1"/>
<path d="M342.838 170.267H336.594V164.022H342.838V170.267Z" fill="#B9E5D1"/>
<path d="M358.096 170.267H351.852V164.022H358.096V170.267Z" fill="#B9E5D1"/>
<path d="M108.79 169.165H52.1523V26.0677H108.79V169.165Z" fill="#8AD4B5"/>
<path d="M61.919 123.089H58.0967V49.0724H61.919V123.089Z" fill="#B9E5D1"/>
<path d="M72.1503 123.089H68.3285V49.0724H72.1503V123.089Z" fill="#B9E5D1"/>
<path d="M82.3824 123.089H78.56V49.0724H82.3824V123.089Z" fill="#B9E5D1"/>
<path d="M92.6144 123.089H88.7921V49.0724H92.6144V123.089Z" fill="#B9E5D1"/>
<path d="M102.846 123.089H99.0241V49.0724H102.846V123.089Z" fill="#B9E5D1"/>
<path d="M108.79 41.9023H52.1523V33.985H108.79V41.9023Z" fill="#E9EDFD"/>
<path d="M6.65935 87.1428C6.65935 88.7689 5.35939 90.0873 3.75601 90.0873C2.15241 90.0873 0.852447 88.7689 0.852447 87.1428C0.852447 85.5167 2.15241 84.1983 3.75601 84.1983C5.35939 84.1983 6.65935 85.5167 6.65935 87.1428V87.1428Z" stroke="#B9E5D1" stroke-width="1.70287" stroke-miterlimit="10"/>
<path d="M351.468 23.9158C351.468 25.5419 350.167 26.8603 348.564 26.8603C346.96 26.8603 345.661 25.5419 345.661 23.9158C345.661 22.2897 346.96 20.9713 348.564 20.9713C350.167 20.9713 351.468 22.2897 351.468 23.9158V23.9158Z" stroke="#B9E5D1" stroke-width="1.70287" stroke-miterlimit="10"/>
<path d="M214.935 54.6601C214.935 56.3461 213.588 57.7131 211.925 57.7131C210.263 57.7131 208.916 56.3461 208.916 54.6601C208.916 52.9741 210.263 51.6077 211.925 51.6077C213.588 51.6077 214.935 52.9741 214.935 54.6601Z" stroke="#B9E5D1" stroke-width="1.70287" stroke-miterlimit="10"/>
<path d="M42.218 14.3427H63.3492" stroke="#B9E5D1" stroke-width="1.33136" stroke-miterlimit="10"/>
<path d="M354.616 79.428H372.95" stroke="#B9E5D1" stroke-width="1.33136" stroke-miterlimit="10"/>
<path d="M200.777 0.666532H232.711" stroke="#B9E5D1" stroke-width="1.33136" stroke-miterlimit="10"/>
<path d="M255.925 208.644H316.438C324.162 208.644 330.423 202.381 330.423 194.656V33.5849C330.423 25.8598 324.162 19.5973 316.438 19.5973H255.925C248.201 19.5973 241.94 25.8598 241.94 33.5849V194.656C241.94 202.381 248.201 208.644 255.925 208.644Z" fill="#008955"/>
<path d="M246.746 208.644H307.258C314.982 208.644 321.243 202.381 321.243 194.656V33.5849C321.243 25.8598 314.982 19.5973 307.258 19.5973H246.746C239.021 19.5973 232.759 25.8598 232.759 33.5849V194.656C232.759 202.381 239.021 208.644 246.746 208.644Z" fill="#007848"/>
<path d="M246.662 204.406H307.341C312.659 204.406 316.969 200.095 316.969 194.776V34.3505C316.969 29.0322 312.659 24.7207 307.341 24.7207H246.662C241.345 24.7207 237.034 29.0322 237.034 34.3505V194.776C237.034 200.095 241.345 204.406 246.662 204.406Z" fill="white"/>
<path d="M262.168 29.45H291.179C292.615 29.45 293.779 28.2855 293.779 26.8489V22.6065H259.568V26.8489C259.568 28.2855 260.732 29.45 262.168 29.45Z" fill="#007848"/>
<path d="M268.81 25.0905H282.221" stroke="#312220" stroke-width="1.1578" stroke-miterlimit="10" stroke-linecap="round" stroke-linejoin="round"/>
<path d="M312.657 110.216H241.409V56.8498H312.657V110.216Z" fill="#E2F5ED"/>
<path d="M317.14 60.9556L228.613 127.802" stroke="white" stroke-width="6.83467" stroke-miterlimit="10"/>
<path d="M338.206 71.9928L249.679 138.84" stroke="white" stroke-width="6.83467" stroke-miterlimit="10"/>
<path d="M295.664 50.2509L217.409 109.341" stroke="white" stroke-width="6.83467" stroke-miterlimit="10"/>
<path d="M246.456 51.7275L279.254 99.9563C280.366 101.591 280.076 103.799 278.579 105.092L268.052 114.18C263.252 118.324 262.589 122.838 266.551 127.79L283.542 151.711" stroke="white" stroke-width="6.83467" stroke-miterlimit="10"/>
<path d="M301.101 51.5779C301.101 44.7846 293.931 39.6666 286.746 43.3799C285.63 43.957 284.212 45.351 283.604 46.4513C281.724 49.853 281.893 53.2078 283.244 55.8586H283.234L283.311 55.9968C283.345 56.0621 283.382 56.1258 283.417 56.1901L291.656 71.0901L299.909 56.1658C299.937 56.1161 299.965 56.0659 299.992 56.0152L300.031 55.9466H300.026C300.709 54.6396 301.101 53.1554 301.101 51.5779Z" fill="#008955"/>
<path d="M295.84 51.4781C295.84 53.7893 293.967 55.6627 291.656 55.6627C289.346 55.6627 287.472 53.7893 287.472 51.4781C287.472 49.1669 289.346 47.2935 291.656 47.2935C293.967 47.2935 295.84 49.1669 295.84 51.4781Z" fill="white"/>
<path d="M206.07 163.694H196.288C186.686 163.694 178.901 173.77 178.901 186.198C178.901 198.627 186.686 208.703 196.288 208.703H206.07C215.672 208.703 223.457 198.627 223.457 186.198C223.457 173.77 215.672 163.694 206.07 163.694Z" fill="black"/>
<path d="M328.05 163.694H318.269C308.666 163.694 300.882 173.77 300.882 186.198C300.882 198.627 308.666 208.703 318.269 208.703H328.05C337.653 208.703 345.438 198.627 345.438 186.198C345.438 173.77 337.653 163.694 328.05 163.694Z" fill="black"/>
<path d="M281.592 158.242H209.487V190.495H281.592V158.242Z" fill="black"/>
<path d="M265.89 186.661C265.89 198.802 258.286 208.644 248.906 208.644C239.527 208.644 231.922 198.802 231.922 186.661C231.922 174.521 239.527 164.679 248.906 164.679C258.286 164.679 265.89 174.521 265.89 186.661Z" fill="black"/>
<path d="M239.352 208.644H248.906L258.673 198.875L248.906 164.679H239.352V208.644Z" fill="black"/>
<path d="M256.336 186.661C256.336 198.802 248.731 208.644 239.352 208.644C229.972 208.644 222.368 198.802 222.368 186.661C222.368 174.521 229.972 164.679 239.352 164.679C248.731 164.679 256.336 174.521 256.336 186.661Z" fill="#007848"/>
<path d="M246.377 186.198C246.377 192.34 242.706 197.32 238.178 197.32C233.65 197.32 229.979 192.34 229.979 186.198C229.979 180.056 233.65 175.078 238.178 175.078C242.706 175.078 246.377 180.056 246.377 186.198Z" fill="#B8B8C2"/>
<path d="M250.194 186.198C250.194 192.34 246.524 197.32 241.995 197.32C237.467 197.32 233.796 192.34 233.796 186.198C233.796 180.056 237.467 175.078 241.995 175.078C246.524 175.078 250.194 180.056 250.194 186.198Z" fill="white"/>
<path d="M159.611 158.242H87.5067V190.495H159.611V158.242Z" fill="black"/>
<path d="M143.909 186.661C143.909 198.802 136.305 208.644 126.925 208.644C117.545 208.644 109.941 198.802 109.941 186.661C109.941 174.521 117.545 164.679 126.925 164.679C136.305 164.679 143.909 174.521 143.909 186.661Z" fill="black"/>
<path d="M117.371 208.644H126.925L136.692 198.875L126.925 164.679H117.371V208.644Z" fill="black"/>
<path d="M134.355 186.661C134.355 198.802 126.751 208.644 117.371 208.644C107.991 208.644 100.388 198.802 100.388 186.661C100.388 174.521 107.991 164.679 117.371 164.679C126.751 164.679 134.355 174.521 134.355 186.661Z" fill="#007848"/>
<path d="M124.396 186.198C124.396 192.34 120.726 197.32 116.197 197.32C111.669 197.32 107.998 192.34 107.998 186.198C107.998 180.056 111.669 175.078 116.197 175.078C120.726 175.078 124.396 180.056 124.396 186.198Z" fill="#B8B8C2"/>
<path d="M128.214 186.198C128.214 192.34 124.543 197.32 120.014 197.32C115.486 197.32 111.815 192.34 111.815 186.198C111.815 180.056 115.486 175.078 120.014 175.078C124.543 175.078 128.214 180.056 128.214 186.198Z" fill="white"/>
<path d="M76.0526 190.494V152.305C76.0526 146.858 80.0471 142.217 85.4409 141.467C90.1755 140.81 96.237 140.236 102.511 140.352C102.511 140.352 138.762 118.066 152.056 118.066L235.336 117.638C246.484 117.485 257.507 119.998 267.488 124.965L304.578 143.424L353.89 154.222C353.89 154.222 364.105 156.994 366.293 163.634C368.482 170.275 367.753 177.572 367.753 177.572H259.446C259.446 177.572 254.565 162.223 238.946 162.223C223.328 162.223 219.098 181.057 220.074 190.494H138.245C138.245 190.494 138.57 162.508 117.42 163.484C96.2699 164.461 97.8969 190.494 97.8969 190.494H76.0526Z" fill="#008955"/>
<path d="M76.8561 177.572C74.0027 177.572 71.6886 179.883 71.6848 182.737L71.6815 185.326C71.6815 188.18 73.9952 190.494 76.8496 190.494H97.8967C97.8967 190.494 97.7892 183.45 99.6554 177.572H76.8561Z" fill="#005932"/>
<path d="M203.469 107.112H171.15C168.457 107.112 166.275 109.295 166.275 111.987V118.066H208.344V111.987C208.344 109.295 206.161 107.112 203.469 107.112Z" fill="black"/>
<path d="M209.757 107.112H177.437C174.745 107.112 172.563 109.295 172.563 111.987V118.066H214.631V111.987C214.631 109.295 212.449 107.112 209.757 107.112Z" fill="#005932"/>
<path d="M184.134 110.517H182.13V109.567H187.26V110.517H185.257V115.612H184.134V110.517Z" fill="black"/>
<path d="M192.004 113.333L190.864 110.69L189.733 113.333H192.004ZM192.375 114.213H189.353L188.757 115.612H187.6L190.32 109.567H191.425L194.154 115.612H192.98L192.375 114.213Z" fill="black"/>
<path d="M199.08 115.612L197.439 113.314L195.816 115.612H194.538L196.783 112.529L194.658 109.567H195.928L197.474 111.717L199.002 109.567H200.22L198.104 112.486L200.375 115.612H199.08Z" fill="black"/>
<path d="M201.708 109.567H202.831V115.612H201.708V109.567Z" fill="black"/>
<path d="M219.754 141.891L186.844 123.376C184.049 121.803 180.896 120.977 177.688 120.977H158.091C153.02 120.977 148.052 122.41 143.76 125.112L112.493 142.856C111.6 143.363 111.959 144.726 112.986 144.726H219.011C220.57 144.726 221.112 142.655 219.754 141.891Z" fill="black"/>
<path d="M112.286 143.626V156.907C112.286 156.907 140.999 151.124 143.909 184.033H209.487C209.487 184.033 207.734 151.863 219.843 144.016" stroke="black" stroke-width="1.04803" stroke-miterlimit="10" stroke-linecap="round" stroke-linejoin="round"/>
<path d="M165.804 144.726C165.804 144.726 158.962 147.761 162.28 184.033" stroke="black" stroke-width="1.04803" stroke-miterlimit="10" stroke-linecap="round" stroke-linejoin="round"/>
<path d="M176.352 151.155H169.762C169.041 151.155 168.457 150.57 168.457 149.849V149.244C168.457 148.523 169.041 147.938 169.762 147.938H176.352C177.073 147.938 177.657 148.523 177.657 149.244V149.849C177.657 150.57 177.073 151.155 176.352 151.155Z" fill="black"/>
<path d="M126.853 151.155H120.263C119.543 151.155 118.958 150.57 118.958 149.849V149.244C118.958 148.523 119.543 147.938 120.263 147.938H126.853C127.575 147.938 128.159 148.523 128.159 149.244V149.849C128.159 150.57 127.575 151.155 126.853 151.155Z" fill="black"/>
<path d="M199.355 124.725L237.024 144.726H301.064L257.983 123.657C254.377 121.894 250.417 120.977 246.404 120.977H200.288C198.215 120.977 197.524 123.752 199.355 124.725Z" fill="black"/>
<path d="M246.377 147.938H305.656" stroke="black" stroke-width="1.04803" stroke-miterlimit="10" stroke-linecap="round" stroke-linejoin="round"/>
<path d="M211.551 120.977L253.365 144.726H267.319L225.518 120.977H211.551Z" fill="#5E5E5E"/>
<path d="M237.598 120.977L279.412 144.726H283.947L242.147 120.977H237.598Z" fill="#5E5E5E"/>
<path d="M361.4 190.494H264.603C261.749 190.494 259.435 188.18 259.435 185.326L259.445 177.572H367.753L367.666 184.227C367.666 187.688 364.861 190.494 361.4 190.494Z" fill="#005932"/>
<path d="M336.273 181.284H318.701V175.968H336.273V181.284Z" fill="white"/>
<path d="M297.861 165.367H349.653" stroke="black" stroke-width="1.04803" stroke-miterlimit="10" stroke-linecap="round" stroke-linejoin="round"/>
<path d="M307.314 169.322H341.353" stroke="black" stroke-width="1.04803" stroke-miterlimit="10" stroke-linecap="round" stroke-linejoin="round"/>
<path d="M307.314 173.261H341.353" stroke="black" stroke-width="1.04803" stroke-miterlimit="10" stroke-linecap="round" stroke-linejoin="round"/>
<path d="M300.023 173.857H277.416C275.506 173.857 273.958 172.308 273.958 170.398V167.153C273.958 165.242 275.506 163.694 277.416 163.694H300.023C301.932 163.694 303.481 165.242 303.481 167.153V170.398C303.481 172.308 301.932 173.857 300.023 173.857Z" fill="white"/>
<path d="M366.327 163.694H349.181C347.271 163.694 345.722 165.242 345.722 167.153V170.398C345.722 172.308 347.271 173.857 349.181 173.857H367.869C368.021 167.033 366.558 164.111 366.327 163.694Z" fill="white"/>
<path d="M273.958 170.398H303.481" stroke="black" stroke-width="1.04803" stroke-miterlimit="10" stroke-linecap="round" stroke-linejoin="round"/>
<path d="M345.722 170.398H367.753" stroke="black" stroke-width="1.04803" stroke-miterlimit="10" stroke-linecap="round" stroke-linejoin="round"/>
<path d="M163.179 24.0178C163.179 13.9523 152.555 6.36814 141.91 11.87C140.256 12.7252 138.154 14.7913 137.254 16.4212C134.468 21.4615 134.718 26.4321 136.721 30.3597H136.706L136.819 30.5649C136.871 30.6615 136.924 30.7565 136.978 30.8515L149.185 52.9287L161.413 30.8159C161.454 30.7414 161.496 30.668 161.537 30.5924L161.593 30.4909H161.586C162.598 28.5538 163.179 26.3549 163.179 24.0178Z" fill="#008955"/>
<path d="M155.384 23.8694C155.384 27.2938 152.609 30.0704 149.185 30.0704C145.761 30.0704 142.985 27.2938 142.985 23.8694C142.985 20.4455 145.761 17.6689 149.185 17.6689C152.609 17.6689 155.384 20.4455 155.384 23.8694Z" fill="white"/>
<path d="M98.015 197.737H106.745L121.183 205.461L96.3578 205.165L98.015 197.737Z" fill="#101010"/>
<path d="M96.2712 208.432L96.3576 205.165L121.182 205.461L121.096 208.728L96.2712 208.432Z" fill="white"/>
<path d="M112.779 200.581L109.919 201.363" stroke="white" stroke-width="1.94209" stroke-miterlimit="10" stroke-linecap="round" stroke-linejoin="round"/>
<path d="M109.983 199.146L107.122 199.928" stroke="white" stroke-width="1.94209" stroke-miterlimit="10" stroke-linecap="round" stroke-linejoin="round"/>
<path d="M107.669 185.427H98.7707L98.015 197.737H106.913L107.669 185.427Z" fill="#EBB28B"/>
<path d="M113.491 104.545L108.005 193.779H95.6143L97.7552 104.545H113.491Z" fill="#B9E5D1"/>
<path d="M77.9508 197.737H86.6811L101.119 205.461L76.2936 205.165L77.9508 197.737Z" fill="#101010"/>
<path d="M76.208 208.432L76.2939 205.165L101.119 205.461L101.033 208.728L76.208 208.432Z" fill="white"/>
<path d="M92.7151 200.581L89.8553 201.363" stroke="white" stroke-width="1.94209" stroke-miterlimit="10" stroke-linecap="round" stroke-linejoin="round"/>
<path d="M89.9195 199.146L87.0591 199.928" stroke="white" stroke-width="1.94209" stroke-miterlimit="10" stroke-linecap="round" stroke-linejoin="round"/>
<path d="M88.4889 185.427H79.5908L77.9508 197.737H86.8495L88.4889 185.427Z" fill="#EBB28B"/>
<path d="M87.2549 104.545L75.1234 193.779H88.6676L106.301 104.545H87.2549Z" fill="#B9E5D1"/>
<path d="M96.5748 153.766L103.498 118.727L108.553 115.433" stroke="#171717" stroke-width="0.850184" stroke-miterlimit="10" stroke-linecap="round" stroke-linejoin="round"/>
<path d="M85.4769 117.625L93.0428 111.668" stroke="#171717" stroke-width="0.850184" stroke-miterlimit="10" stroke-linecap="round" stroke-linejoin="round"/>
<path d="M115.823 70.6302L129.607 88.7317C131.131 90.4355 131.226 92.9838 129.833 94.7961C128.075 97.0809 124.705 97.2866 122.683 95.2324L107.869 78.0978C105.838 76.0343 105.772 72.7438 107.718 70.6H107.719C109.895 68.2045 113.665 68.2191 115.823 70.6302Z" fill="#EBB28B"/>
<path d="M109.071 63.7635C109.071 63.7635 115.81 64.6046 120.969 74.6064L113.044 84.1082L109.071 63.7635Z" fill="#007848"/>
<path d="M120.156 89.4746L139.052 77.6221L142.814 81.5065L129.115 95.5455L120.156 89.4746Z" fill="#EBB28B"/>
<path d="M142.08 70.2161L151.449 72.95C151.449 72.95 151.449 80.2125 142.806 81.5254C142.334 81.5973 140.207 80.7831 139.841 80.457L138.403 76.3567C137.893 75.6845 137.936 74.7435 138.506 74.121L142.08 70.2161Z" fill="#EBB28B"/>
<path d="M141.305 71.4243L144.619 67.0724C145.111 66.465 145.954 66.3376 146.511 66.7852C147.046 67.2149 147.133 68.0269 146.711 68.6472L143.65 73.4208L141.305 71.4243Z" fill="#E9B0A0"/>
<path d="M145.311 74.8963L149.293 70.966C149.843 70.4137 150.661 70.357 151.13 70.8391C151.579 71.3018 151.552 72.1008 151.066 72.6715L147.267 77.0342L145.311 74.8963Z" fill="#E9B0A0"/>
<path d="M143.777 72.2115L147.54 68.4944C148.095 67.9464 148.937 67.9227 149.433 68.441C149.909 68.9377 149.899 69.7626 149.413 70.3327L145.85 74.5043L143.777 72.2115Z" fill="#E9B0A0"/>
<path d="M150.11 60.7969L151.602 60.893V70.6868L146.367 78.8854L144.775 78.7553L147.583 68.4566L150.11 60.7969Z" fill="#36438D"/>
<path d="M141.335 74.391L145.711 78.5162C146.111 79.0139 146.871 79.0075 147.262 78.5027L156.789 66.6103C157.022 66.3096 157.018 65.8885 156.78 65.5921L152.19 61.2002C151.857 60.7861 151.225 60.792 150.9 61.2115L141.324 73.1671C141.044 73.5282 141.048 74.0347 141.335 74.391Z" fill="#050907"/>
<path d="M139.879 74.2943L144.255 78.4195C144.655 78.9173 145.415 78.9103 145.806 78.4055L155.333 66.5136C155.566 66.2129 155.562 65.7918 155.324 65.4954L150.734 61.1035C150.401 60.6894 149.769 60.6954 149.444 61.1148L139.868 73.0704C139.588 73.4316 139.593 73.938 139.879 74.2943Z" fill="white"/>
<path d="M139.413 77.6896C138.9 77.4375 137.62 76.1018 137.846 74.0773C138.144 71.413 139.52 69.395 139.52 69.395C139.977 68.5371 140.507 68.1219 141.25 68.2256C142.056 68.3384 142.572 69.1957 142.428 69.7912L141.589 71.6517C141.589 71.6517 142.512 74.0104 140.579 77.5854L139.413 77.6896Z" fill="#EBB28B"/>
<path d="M96.3927 61.8448C96.3927 61.8448 91.2959 63.0357 87.6619 64.8686C85.3742 66.0229 85.1205 68.5166 85.4082 71.0626L87.2549 104.545H113.491L115.327 72.1974C115.58 68.6488 113.495 65.171 110.128 64.0264C106.354 62.7437 103.971 61.5225 101.964 61.4059L96.3927 61.8448Z" fill="#007848"/>
<path d="M114.771 82.0383L115.327 72.1975" stroke="#171717" stroke-width="0.850184" stroke-miterlimit="10" stroke-linecap="round" stroke-linejoin="round"/>
<path d="M96.3928 61.8448L93.3677 62.6762C93.3677 62.6762 95.6144 67.006 103.776 66.2734C109.499 65.76 107.193 62.9596 107.193 62.9596L104.346 61.929L96.3928 61.8448Z" fill="#EBB28B"/>
<path d="M71.5995 81.0671L85.147 101.015L81.4984 105.006L66.5436 90.3519L71.5995 81.0671Z" fill="#EBB28B"/>
<path d="M97.595 101.923L91.8001 98.9759L92.3691 97.7039C92.5764 97.2412 92.4479 96.6965 92.056 96.3747C91.6512 96.0422 91.0709 96.033 90.6558 96.3526L84.9484 100.835L81.4985 105.006C84.6288 107.687 86.6747 107.654 87.8536 107.135C87.9913 107.181 88.1273 107.231 88.2671 107.271L93.0833 108.653C93.5286 108.845 94.0468 108.657 94.2649 108.224C94.4236 107.91 94.4797 107.406 93.5529 106.935L94.4797 107.406C94.951 107.61 95.4984 107.403 95.7181 106.94C95.9253 106.53 95.6711 105.988 95.127 105.634L95.8363 105.913C96.3502 106.135 96.9553 105.882 97.148 105.337C97.3143 104.865 97.0649 104.344 96.6184 104.119L95.5944 103.6L96.8106 103.895C97.3704 104.093 97.995 103.794 98.1785 103.207C98.3361 102.703 98.0651 102.162 97.595 101.923Z" fill="#EBB28B"/>
<path d="M95.9025 103.746L92.4764 102.129" stroke="#171717" stroke-width="0.552121" stroke-miterlimit="10" stroke-linecap="round" stroke-linejoin="round"/>
<path d="M94.9813 105.574L91.6782 104.198" stroke="#171717" stroke-width="0.552121" stroke-miterlimit="10" stroke-linecap="round" stroke-linejoin="round"/>
<path d="M93.8596 107.056L91.0607 105.952" stroke="#171717" stroke-width="0.552121" stroke-miterlimit="10" stroke-linecap="round" stroke-linejoin="round"/>
<path d="M90.6013 75.5684L73.3734 90.4291C71.7658 92.0546 69.2282 92.3041 67.3345 91.0224C64.9475 89.4071 64.5378 86.055 66.4649 83.9117L82.665 68.082C84.6008 65.9284 87.8812 65.6628 90.1386 67.4762C92.6617 69.5029 92.8771 73.2675 90.6013 75.5684Z" fill="#EBB28B"/>
<path d="M91.3781 63.3267C91.3781 63.3267 82.3871 65.084 75.0111 74.4363L82.8281 84.6275L94.0355 76.6006L91.3781 63.3267Z" fill="#007848"/>
<path d="M86.6327 81.9022L93.1342 77.2458" stroke="#171717" stroke-width="0.850184" stroke-miterlimit="10" stroke-linecap="round" stroke-linejoin="round"/>
<path d="M110.329 33.7361C110.329 33.7361 113.365 36.449 110.846 42.5399L106.679 34.3165L110.329 33.7361Z" fill="#008955"/>
<path d="M93.3245 34.4709C93.3245 34.4709 89.7796 34.0854 88.9747 39.5533C88.1699 45.0217 92.1877 48.2901 96.6475 50.9339L93.3245 34.4709Z" fill="#008955"/>
<path d="M110.886 41.4601C110.886 47.2082 106.332 51.8678 100.715 51.8678C95.098 51.8678 90.5442 47.2082 90.5442 41.4601C90.5442 35.7126 95.098 31.0529 100.715 31.0529C106.332 31.0529 110.886 35.7126 110.886 41.4601Z" fill="#008955"/>
<path d="M107.286 45.9433C107.74 47.294 109.202 48.0207 110.553 47.5667C111.904 47.1126 112.63 45.6496 112.176 44.2988C111.722 42.948 110.259 42.2208 108.909 42.6754C107.558 43.1294 106.832 44.5925 107.286 45.9433Z" fill="#DD8161"/>
<path d="M104.393 51.9311L104.544 63.1594L96.171 61.7752L96.7793 45.6712L104.393 51.9311Z" fill="#EBB28B"/>
<path d="M104.474 57.6202L98.5931 51.8678L104.661 52.9335L104.474 57.6202Z" fill="#171717"/>
<path d="M109.671 36.4603C109.671 36.4603 111.936 45.5043 110.914 48.9763C109.891 52.4488 107.195 54.6995 102.692 53.9609C102.692 53.9609 97.5 53.8616 95.9653 46.204C93.6549 34.6755 104.087 30.4547 109.671 36.4603Z" fill="#EBB28B"/>
<path d="M97.4196 46.1975C97.4196 46.1975 100.743 38.5636 97.1335 37.0752C96.0506 36.6287 95.4158 36.402 94.9041 40.2281C94.3918 44.0536 95.7278 44.6799 95.7278 44.6799L97.4196 46.1975Z" fill="#008955"/>
<path d="M92.8243 47.0743C93.2939 48.4704 94.8054 49.2214 96.2013 48.7522C97.5973 48.2825 98.3481 46.7704 97.879 45.3748C97.4099 43.9787 95.898 43.2271 94.502 43.6963C93.1066 44.166 92.3552 45.6782 92.8243 47.0743Z" fill="#EBB28B"/>
<path d="M94.1263 45.4816C94.1263 45.4816 96.0631 44.8619 96.6477 46.9965" stroke="#171717" stroke-width="0.525888" stroke-miterlimit="10" stroke-linecap="round" stroke-linejoin="round"/>
<path d="M107.813 45.1864L108.392 47.1391C108.42 47.2843 108.33 47.4258 108.186 47.4609L107.531 47.5661" stroke="#1E0B07" stroke-width="0.497083" stroke-miterlimit="10" stroke-linecap="round" stroke-linejoin="round"/>
<path d="M103.742 44.5752C103.721 44.931 103.992 45.2366 104.347 45.2576C104.703 45.2792 105.008 45.0082 105.029 44.6524C105.051 44.2972 104.78 43.9916 104.424 43.97C104.069 43.949 103.763 44.22 103.742 44.5752Z" fill="#171717"/>
<path d="M109.134 44.4299C109.114 44.7598 109.365 45.0427 109.695 45.0627C110.025 45.0827 110.308 44.8311 110.328 44.5017C110.348 44.1719 110.096 43.8884 109.766 43.8685C109.437 43.849 109.154 44.1001 109.134 44.4299Z" fill="#171717"/>
<path d="M105.602 40.2081L100.743 41.7613C100.743 41.7613 101.823 40.2772 103.225 39.8367C104.626 39.3961 105.602 40.2081 105.602 40.2081Z" fill="#171717"/>
<path d="M108.327 40.0937L110.886 40.9186C110.886 40.9186 110.446 39.8248 109.708 39.5927C108.969 39.3611 108.327 40.0937 108.327 40.0937Z" fill="#171717"/>
<path d="M104.386 48.0504C104.386 48.0504 106.175 48.9617 107.964 48.9617C107.964 48.9617 105.53 50.7287 104.386 48.0504Z" fill="white"/>
<path d="M96.0527 37.1627C96.0527 37.1627 98.7555 39.4917 105.446 38.1436C112.137 36.795 112.401 32.2595 111.595 30.6658C111.595 30.6658 109.133 32.5775 105.076 31.5323C102.814 30.9487 97.7602 28.8221 94.7259 31.0999C93.6803 31.8854 93.0725 33.1876 93.3246 34.4709C93.5194 35.4637 94.1823 36.5974 96.0527 37.1627Z" fill="#008955"/>
<path d="M65.6007 155.602H48.1844V118.288C48.1844 114.558 51.2078 111.534 54.9373 111.534H58.8482C62.5778 111.534 65.6007 114.558 65.6007 118.288V155.602Z" stroke="#101010" stroke-width="3.82461" stroke-miterlimit="10"/>
<path d="M52.0252 204.684C52.0252 206.917 50.2147 208.728 47.9815 208.728C45.7483 208.728 43.9378 206.917 43.9378 204.684C43.9378 202.45 45.7483 200.639 47.9815 200.639C50.2147 200.639 52.0252 202.45 52.0252 204.684Z" fill="#101010"/>
<path d="M69.8479 204.684C69.8479 206.917 68.0374 208.728 65.8037 208.728C63.5705 208.728 61.76 206.917 61.76 204.684C61.76 202.45 63.5705 200.639 65.8037 200.639C68.0374 200.639 69.8479 202.45 69.8479 204.684Z" fill="#101010"/>
<path d="M70.7208 203.736H43.0644C39.1183 203.736 35.9194 200.536 35.9194 196.589V149.934C35.9194 145.987 39.1183 142.787 43.0644 142.787H70.7208C74.6673 142.787 77.8662 145.987 77.8662 149.934V196.589C77.8662 200.536 74.6673 203.736 70.7208 203.736Z" fill="#007848"/>
<path d="M44.6459 194.555H43.1144V152.427H44.6459V194.555Z" stroke="#171717" stroke-width="0.817204" stroke-miterlimit="10" stroke-linecap="round" stroke-linejoin="round"/>
<path d="M52.7912 194.555H51.2597V152.427H52.7912V194.555Z" stroke="#171717" stroke-width="0.817204" stroke-miterlimit="10" stroke-linecap="round" stroke-linejoin="round"/>
<path d="M60.9362 194.555H59.4048V152.427H60.9362V194.555Z" stroke="#171717" stroke-width="0.817204" stroke-miterlimit="10" stroke-linecap="round" stroke-linejoin="round"/>
<path d="M69.0813 194.555H67.5499V152.427H69.0813V194.555Z" stroke="#171717" stroke-width="0.817204" stroke-miterlimit="10" stroke-linecap="round" stroke-linejoin="round"/>
<path d="M9.5852 208.703H374.347" stroke="black" stroke-width="1.30461" stroke-miterlimit="10" stroke-linecap="round" stroke-linejoin="round"/>
</svg>
