<svg width="217" height="110" viewBox="0 0 217 110" fill="none" xmlns="http://www.w3.org/2000/svg">
<path d="M125.391 26.2377H110.4C110.4 26.2377 111.349 18.5662 111.946 16.9126C112.515 15.3133 113.03 12.9548 117.909 12.9548C122.328 12.9548 123.602 15.0422 124.09 16.9126C124.551 18.7831 125.391 26.2377 125.391 26.2377Z" fill="white"/>
<path d="M197.227 56.0835H213.166L211.052 47.8969H197.227V56.0835Z" fill="#008955"/>
<path d="M0.803223 79.4233C-0.606387 74.8962 -0.0913506 69.9897 1.8062 65.6525C2.29414 64.541 2.75499 63.5109 3.10739 62.9146C4.32724 60.9357 7.58018 57.4659 9.45062 56.0834C11.0771 54.8635 14.9535 53.4268 16.9053 52.8575C22.2998 51.2853 39.1338 49.3877 39.1338 49.3877L54.1515 48.0323L66.079 41.3638C66.079 41.3638 78.7655 34.0447 83.2112 32.0387C89.8526 29.0297 102.756 25.8039 111.674 25.8039C131.978 25.8039 142.794 26.1834 152.824 28.4875C158.463 29.7887 174.754 35.8609 174.754 35.8609L193.161 42.3126C193.161 42.3126 205.549 41.3638 208.802 43.5596C209.995 44.3457 211.323 48.6558 211.323 48.6558L200.859 48.8727L202.865 55.1075L212.814 55.487L214.467 58.4147C216.501 62.0471 217.232 66.303 216.446 70.3963C215.714 74.1914 214.44 78.4203 212.326 79.9383C209.452 81.9985 189.881 83.1642 189.881 83.1642C189.881 83.1642 191.29 62.6706 171.61 62.1827C161.743 61.9387 154.722 69.0681 153.556 75.9535C153.177 78.1763 152.824 84.8991 152.824 84.8991L54.1786 86.39C54.1515 86.39 54.1786 86.39 54.1786 86.39H54.1515V85.2514C53.9075 78.6642 51.6576 62.9417 34.1188 62.9417C14.7638 62.9417 15.8752 86.3086 15.8752 86.3086C15.8752 86.3086 6.36034 85.8478 3.51401 83.7876C2.21283 82.8389 1.37249 81.2124 0.803223 79.4233Z" fill="#08B783"/>
<path d="M118.994 45.3487L119.942 30.0057C119.942 30.0057 135.638 29.8972 142.198 31.2526C144.502 31.7406 150.195 34.1803 154.857 36.9453C160.577 40.3338 165.05 44.4 165.05 44.4L118.994 45.3487Z" fill="#272425"/>
<path d="M111.051 46.0808L113.192 29.9245C113.192 29.9245 105.141 29.9245 96.7379 31.9847C85.3255 34.7768 66.8921 48.3307 66.8921 48.3307L111.051 46.0808Z" fill="#272425"/>
<path d="M111.051 46.0808L108.259 78.5831" stroke="#08B783" stroke-width="0.5" stroke-miterlimit="10"/>
<path d="M153.285 78.0409L53.5011 79.6673" stroke="#08B783" stroke-width="0.5" stroke-miterlimit="10"/>
<path d="M66.8922 48.3307L62.0399 78.8541" stroke="#08B783" stroke-width="0.5" stroke-miterlimit="10"/>
<path d="M165.05 44.4271L163.993 63.1857" stroke="#08B783" stroke-width="0.5" stroke-miterlimit="10"/>
<path d="M150.874 55.0456H159.251V52.0095H150.874V55.0456Z" fill="#08B783"/>
<path d="M97.2284 55.0456H105.605V52.0095H97.2284V55.0456Z" fill="#08B783"/>
<path d="M9.4505 56.0836H19.0467C20.2665 56.0836 20.89 57.5203 20.1039 58.4148C15.9293 63.1316 9.91135 65.7882 3.59521 65.6797L1.80608 65.6526C1.80608 65.6526 3.78496 60.0684 9.4505 56.0836Z" fill="white"/>
<path d="M154.695 80.8871C154.695 90.0496 162.095 97.4772 171.23 97.4772C180.366 97.4772 187.766 90.0496 187.766 80.8871C187.766 71.7247 180.366 64.2971 171.23 64.2971C162.095 64.2971 154.695 71.7247 154.695 80.8871Z" fill="#272425"/>
<path d="M164.237 80.8872C164.237 84.7637 167.381 87.9082 171.257 87.9082C175.134 87.9082 178.278 84.7637 178.278 80.8872C178.278 77.0108 175.134 73.8663 171.257 73.8663C167.354 73.8392 164.237 76.9837 164.237 80.8872Z" fill="#CFD1D2"/>
<path d="M18.342 80.8871C18.342 90.0496 25.7425 97.4772 34.8778 97.4772C44.0132 97.4772 51.4136 90.0496 51.4136 80.8871C51.4136 71.7247 44.0132 64.2971 34.8778 64.2971C25.7425 64.2971 18.342 71.7247 18.342 80.8871Z" fill="#272425"/>
<path d="M27.8569 80.8872C27.8569 84.7637 31.0014 87.9082 34.8778 87.9082C38.7542 87.9082 41.8987 84.7637 41.8987 80.8872C41.8987 77.0108 38.7542 73.8663 34.8778 73.8663C31.0014 73.8392 27.8569 76.9837 27.8569 80.8872Z" fill="#CFD1D2"/>
<path d="M58.2357 109.067C58.2363 109.008 58.2326 108.95 58.2178 108.89C57.3392 105.403 52.978 103.23 52.978 103.23L51.2496 103.366C50.2562 106.44 50.3839 108.326 50.5436 109.165C50.5479 109.189 50.5552 109.211 50.5614 109.234C51.9871 109.361 54.9213 109.444 58.2357 109.067Z" fill="#B9E5D1"/>
<path d="M50.5615 109.23C50.6382 109.51 50.8451 109.728 51.1098 109.784C53.1378 110.212 56.3606 109.868 57.7139 109.69C58.0123 109.651 58.2308 109.375 58.2357 109.063C54.9214 109.441 51.9871 109.358 50.5615 109.23Z" fill="url(#paint0_linear_48_769)"/>
<path d="M50.5551 100.783L51.287 104.311C51.3404 104.57 51.5387 104.763 51.7794 104.786C52.0735 104.813 52.4922 104.829 52.9134 104.768C53.291 104.713 53.5538 104.328 53.4869 103.916L52.9779 100.783H50.5551Z" fill="url(#paint1_linear_48_769)"/>
<path d="M65.7203 109.189C63.8114 109.136 62.8247 108.911 62.3139 108.702C62.3127 108.892 62.3139 109.085 62.32 109.286C62.3268 109.5 62.4852 109.67 62.6798 109.669L73.1595 109.602C73.4941 109.6 73.6893 109.211 73.5444 108.904C72.1709 109.017 68.6712 109.271 65.7203 109.189Z" fill="url(#paint2_linear_48_769)"/>
<path d="M73.5443 108.904C73.5314 108.877 73.5209 108.85 73.5025 108.824C72.5772 107.53 70.2201 104.952 65.5617 103.834L63.3274 103.763C63.3274 103.763 62.3321 105.495 62.3137 108.701C62.824 108.91 63.8113 109.135 65.7202 109.189C68.671 109.271 72.1708 109.017 73.5443 108.904Z" fill="#B9E5D1"/>
<path d="M62.8141 100.478C62.8491 100.643 63.3145 103.154 63.4944 104.127C63.5374 104.358 63.7173 104.527 63.9316 104.54C64.3141 104.561 64.9312 104.564 65.4623 104.419C65.7484 104.341 65.9412 104.049 65.9203 103.725L65.6704 99.7543L62.8141 100.478Z" fill="url(#paint3_linear_48_769)"/>
<path d="M61.1207 54.128C61.1207 54.128 64.1944 75.2743 66.4127 100.438C66.4539 100.906 66.0812 101.314 65.6213 101.411C64.9434 101.554 63.9475 101.724 63.123 101.701C62.6827 101.689 62.3149 101.362 62.2406 100.927C61.4848 96.49 56.0927 72.6784 54.6775 67.4381C54.6775 67.4381 53.0516 89.6994 53.5717 101.248C53.5846 101.535 53.3746 101.784 53.0891 101.818C52.6562 101.867 51.9643 101.906 51.0832 101.812C50.7486 101.776 50.479 101.523 50.4311 101.19C49.8926 97.4348 46.7944 75.0843 46.9265 58.9835C46.9338 58.0756 47.9905 50.6156 47.9905 50.6156L61.1207 54.128Z" fill="#009B62"/>
<path d="M87.4686 33.9143C87.4686 33.9143 86.6078 31.6466 85.6033 31.8544C84.5982 32.0622 83.4986 32.8349 83.4986 32.8349L81.8838 35.0213C81.8838 35.0213 86.4163 36.8089 88.0108 35.7848C88.0108 35.7848 92.6409 36.5858 98.4873 35.625C97.6413 33.8362 97.1366 32.045 96.8406 30.6551C93.8787 32.3326 90.689 33.586 87.4686 33.9143Z" fill="url(#paint4_linear_48_769)"/>
<path d="M111.993 17.4642C111.993 17.4642 105.365 25.8229 96.8399 30.6538C97.1358 32.0442 97.6405 33.8348 98.4866 35.6236C102.909 34.8971 108.027 33.1636 112.365 29.3107L111.993 17.4642Z" fill="#B9E5D1"/>
<path d="M62.3118 18.5688L62.7231 29.634C63.8922 30.0366 65.0047 30.3501 66.0645 30.5837C66.7276 28.447 68.1871 25.8247 69.3819 23.8755C64.9912 22.3215 62.3118 18.5688 62.3118 18.5688Z" fill="#009B62"/>
<path d="M84.2349 18.3746C78.211 24.8855 73.3359 25.269 69.3824 23.87C68.187 25.8198 66.7275 28.4421 66.065 30.5782C82.1504 34.1287 85.9387 19.3237 85.9387 19.3237L84.2349 18.3746Z" fill="url(#paint5_linear_48_769)"/>
<path d="M47.5287 55.3418C47.2124 55.2293 46.992 54.9423 46.9576 54.6085C46.5487 50.6381 44.5698 26.0206 57.0646 15.8947C57.0646 15.8947 57.7811 14.018 63.6711 18.6313C69.5612 23.2453 66.4077 28.0811 64.9974 34.7512C63.2911 42.8228 60.2972 49.4204 61.6216 54.3872C61.7131 54.7302 61.5332 55.0898 61.2004 55.2127C56.6256 56.9007 52.0679 56.9566 47.5287 55.3418Z" fill="#8AD4B5"/>
<path d="M61.9389 8.51998C61.9352 8.87036 56.9459 15.9652 56.9459 15.9652C56.9459 15.9652 57.8417 17.7313 62.117 19.1647L65.8077 11.5683L61.9389 8.51998Z" fill="url(#paint6_linear_48_769)"/>
<path d="M59.9766 32.881C59.9766 32.881 69.4426 40.8179 79.6643 37.3547C80.2986 37.1402 80.9918 37.1869 81.5836 37.4992L84.5222 39.0531C85.7557 39.7053 87.2833 39.2769 87.9986 38.0788C88.4069 37.3953 88.7551 36.614 88.8245 35.8659L83.0744 33.5356L83.4981 32.8299C83.4981 32.8299 80.6909 32.592 79.956 34.6064C79.956 34.6064 74.6087 36.8335 65.5904 26.9024C65.591 26.9018 61.4987 30.3853 59.9766 32.881Z" fill="url(#paint7_linear_48_769)"/>
<path d="M59.4672 32.8021C59.4358 32.8021 59.4045 32.7935 59.3769 32.7744C55.3909 30.0784 53.5163 25.7269 53.4973 25.6833C53.4623 25.6003 53.501 25.5056 53.5833 25.4706C53.6662 25.4355 53.7607 25.4736 53.7957 25.5566C53.8135 25.5997 55.6543 29.8651 59.558 32.5058C59.6323 32.5556 59.652 32.6564 59.6016 32.7314C59.5703 32.7769 59.5193 32.8021 59.4672 32.8021Z" fill="#008955"/>
<path d="M65.4036 26.7675C65.3502 26.7675 65.298 26.7411 65.2673 26.6931C65.2551 26.6747 64.0375 24.7771 61.7185 20.6193C61.005 19.3407 60.0681 18.5311 58.9328 18.2133C57.0527 17.6871 55.2408 18.6965 55.2224 18.7069C55.1445 18.75 55.0456 18.7241 55.0014 18.6461C54.9572 18.568 54.9842 18.469 55.0622 18.4248C55.1402 18.3805 57.0042 17.3361 59.0169 17.9004C60.24 18.2422 61.2439 19.1034 62.0015 20.4613C64.315 24.6087 65.5277 26.4995 65.54 26.5179C65.5885 26.5929 65.567 26.6937 65.4915 26.7423C65.4644 26.7589 65.4337 26.7675 65.4036 26.7675Z" fill="#008955"/>
<path d="M65.8667 4.45569C65.8667 4.45569 67.6418 8.53852 67.7615 10.6814C67.8806 12.8242 68.3417 14.2147 65.8667 14.6462C63.3917 15.0777 61.3066 13.8434 60.1775 11.7085C60.1775 11.7085 58.4079 8.41927 58.8046 7.07246C59.2018 5.72565 65.8667 4.45569 65.8667 4.45569Z" fill="url(#paint8_linear_48_769)"/>
<path d="M61.0236 10.1753L61.1642 10.1132C61.3435 10.0339 61.4203 9.82057 61.33 9.646C60.9813 8.97105 60.3003 7.42385 61.1796 7.06303C62.3124 6.5977 66.7994 5.68179 67.7671 4.08788C68.6973 2.55605 67.8733 0.578558 66.6343 0.0161073C66.5514 -0.0213894 66.4538 0.00811579 66.4108 0.0886414L66.3076 0.284116C66.237 0.41812 66.0393 0.397834 65.9976 0.25215C65.9571 0.112613 65.7716 0.0855687 65.6949 0.208509C65.3971 0.685516 64.594 1.4588 62.4456 1.85528C59.3922 2.41958 57.3734 3.65636 57.3231 5.76908C57.32 5.90308 57.1776 5.97808 57.0628 5.908C56.8374 5.77031 56.4764 5.70576 55.9944 6.11208C55.1557 6.81775 55.4989 8.64895 57.3372 10.1556C57.4244 10.2269 57.4238 10.3633 57.3292 10.4254C56.9958 10.6424 56.4991 11.1594 57.7867 11.8485C59.1178 12.5609 60.1125 12.5025 60.495 12.4392C60.5901 12.4232 60.6515 12.331 60.6307 12.2369L60.2224 10.3806C60.199 10.2754 60.2788 10.1759 60.3863 10.1759H61.0236V10.1753Z" fill="url(#paint9_linear_48_769)"/>
<path d="M61.1003 10.5653C61.1003 10.5653 60.4231 7.95709 59.2553 8.68858C58.0875 9.42007 59.8613 11.6109 60.8001 11.7086L61.1003 10.5653Z" fill="url(#paint10_linear_48_769)"/>
<path d="M81.5837 37.5013C81.5837 37.5013 83.9894 39.8568 84.4535 39.5138C84.6187 39.3921 85.0356 38.9489 85.4396 38.4553C85.7245 38.1068 85.7546 37.615 85.5096 37.237L84.9423 36.3604C84.4013 35.525 83.244 35.3498 82.4943 36.0033C82.1161 36.3334 81.7728 36.8104 81.5837 37.5013Z" fill="url(#paint11_linear_48_769)"/>
<path d="M120.26 54.5081C118.964 48.3433 117.667 44.7743 113.327 33.0895C111.961 29.4124 110.721 25.6922 111.32 21.8147L111.993 17.4602C111.993 17.4602 120.429 14.6024 129.78 17.3397C129.78 17.3397 142.537 22.8879 133.872 50.2894C129.966 54.6648 125.395 55.9115 120.26 54.5081Z" fill="#B9E5D1"/>
<path d="M113.43 11.9039L115.617 17.1651C115.755 17.4977 116.053 17.7343 116.408 17.7952C117.669 18.0116 120.72 18.3496 122.722 17.0311C122.961 16.8738 123.022 16.5492 122.859 16.3144L118.817 10.5061L113.43 11.9039Z" fill="url(#paint12_linear_48_769)"/>
<path d="M115.691 3.85309C115.599 3.93977 111.815 11.3813 111.815 11.3813L116.105 13.4547L120.739 6.9352C120.738 6.9352 117.229 2.40363 115.691 3.85309Z" fill="url(#paint13_linear_48_769)"/>
<path d="M118.789 7.71874L116.649 11.2895C116.617 11.3436 116.578 11.3928 116.532 11.4358C116.277 11.6731 115.406 12.3634 114.732 11.4235C114.158 10.6226 113.619 9.89417 113.042 9.59358C112.705 9.41839 112.29 9.55854 112.119 9.89786C111.766 10.5974 111.083 12.0235 110.654 13.3752C110.547 13.7139 110.721 14.0778 111.051 14.2112C111.92 14.5634 113.636 15.2009 115.16 15.4111C115.41 15.4455 115.658 15.3398 115.807 15.1357C116.463 14.2364 118.31 11.7241 118.94 11.0953C119.526 10.5113 120.607 10.7314 121.094 10.8715C121.279 10.925 121.476 10.8992 121.64 10.7996C122.135 10.5015 122.997 9.75955 122.208 8.50249C122.013 8.19022 122.112 7.77407 122.42 7.57122C122.972 7.20793 123.571 6.52561 123 5.421C122.423 4.30286 121.392 4.20205 120.689 4.28811C120.379 4.32622 120.063 4.16271 119.944 3.87319C119.891 3.7441 119.786 3.63468 119.591 3.59473C119.223 3.51973 118.981 3.18288 119.054 2.81406C119.178 2.18092 119.084 1.35906 118.075 0.803375C116.224 -0.215797 114.602 1.44451 114.19 2.84603C113.778 4.24754 115.847 5.23782 117.15 5.40317C118.106 5.52489 118.63 6.56926 118.841 7.11573C118.917 7.31489 118.898 7.53618 118.789 7.71874Z" fill="url(#paint14_linear_48_769)"/>
<path d="M118.136 12.4111C118.136 12.4111 118.96 9.99965 120.013 10.0882C121.067 10.1767 121.897 11.2272 120.591 12.4087C118.966 13.8784 118.136 12.4111 118.136 12.4111Z" fill="url(#paint15_linear_48_769)"/>
<path d="M119.43 108.848C121.467 109.024 125.003 109.31 127.79 109.433C129.466 109.507 130.431 109.343 130.986 109.121C130.985 109.183 130.984 109.242 130.981 109.298C130.968 109.591 130.73 109.826 130.434 109.843C125.166 110.137 120.977 109.945 119.486 109.854C119.178 109.835 118.994 109.5 119.151 109.236C119.231 109.104 119.326 108.975 119.43 108.848Z" fill="#00AA6D"/>
<path d="M127.79 109.435C125.003 109.312 121.467 109.026 119.43 108.849C121.432 106.389 127.79 104.731 127.79 104.731H129.586C130.821 106.513 131 108.21 130.987 109.121C130.431 109.345 129.466 109.509 127.79 109.435Z" fill="#B9E5D1"/>
<path d="M129.888 101.792L129.72 105.121C129.702 105.481 129.432 105.784 129.072 105.836C128.713 105.888 128.232 105.894 127.723 105.724C127.409 105.62 127.176 105.355 127.119 105.033L126.538 101.792H129.888Z" fill="url(#paint16_linear_48_769)"/>
<path d="M153.211 109.394C154.095 109.27 154.494 108.811 154.662 108.32C154.663 108.324 154.665 108.328 154.665 108.333C154.795 108.852 154.494 109.389 153.891 109.644C153.163 109.952 152.367 110.005 151.749 109.979C151.086 109.952 150.478 109.677 150.143 109.238L150.138 109.231C150.803 109.56 151.738 109.599 153.211 109.394Z" fill="#00AA6D"/>
<path d="M149.045 101.756H150.526C152.782 101.71 154.198 106.473 154.662 108.318C154.494 108.809 154.095 109.269 153.211 109.392C151.738 109.597 150.803 109.559 150.137 109.229C148.919 107.623 148.315 105.272 148.024 103.9C147.694 102.34 149.045 101.756 149.045 101.756Z" fill="#B9E5D1"/>
<path d="M150.336 98.667L151.158 101.942C151.259 102.343 151.067 102.758 150.696 102.948C150.237 103.184 149.589 103.433 148.994 103.362C148.714 103.328 148.481 103.13 148.389 102.867L147.182 99.4219L150.336 98.667Z" fill="url(#paint17_linear_48_769)"/>
<path d="M151.317 99.6205C150.294 100.529 146.966 100.649 146.966 100.649C134.98 71.8471 129.983 63.9181 129.983 63.9181C131.714 74.7891 130.356 102.694 130.356 102.694C128.378 103.568 125.828 102.694 125.828 102.694C125.667 84.8966 123.164 65.7727 119.937 53.5359C128.038 53.3533 132.441 51.5854 133.848 50.4716C140.6 61.3714 151.317 99.6205 151.317 99.6205Z" fill="#008955"/>
<path d="M83.7255 17.1078C83.7255 17.1078 83.1987 16.1538 83.2552 15.3866C83.3116 14.6195 82.834 13.4921 83.3423 13.5757C83.8507 13.6593 83.9557 13.5911 84.0933 14.5119C84.2314 15.4327 85.4723 18.8289 83.7255 17.1078Z" fill="url(#paint18_linear_48_769)"/>
<path d="M87.5657 11.4093C87.5601 11.2654 87.4901 11.1314 87.3759 11.0435C87.2617 10.9556 87.1144 10.9237 86.9738 10.9556L83.4679 11.7541C83.3316 11.7849 83.2407 11.9133 83.2561 12.0523L84.2753 21.1744C84.2796 21.2137 84.2998 21.2494 84.3305 21.274C84.3612 21.2986 84.4012 21.3096 84.4404 21.3047L87.5006 20.9334C87.7511 20.9033 87.9365 20.6851 87.9267 20.4325L87.5657 11.4093Z" fill="url(#paint19_linear_48_769)"/>
<path d="M86.5796 11.9344C86.5753 11.8526 86.5341 11.777 86.4684 11.7284C86.4028 11.6799 86.3186 11.6633 86.2394 11.683L83.9327 12.2602C83.7994 12.2934 83.711 12.4206 83.7264 12.5571L84.6013 20.3256C84.6056 20.3662 84.6271 20.4031 84.6596 20.4277C84.6922 20.4523 84.7339 20.4621 84.7744 20.4547L86.9013 20.0755C86.975 20.0625 87.0272 19.9962 87.0235 19.9212L86.5796 11.9344Z" fill="url(#paint20_linear_48_769)"/>
<path d="M85.2541 11.7223C85.2596 11.7499 85.2221 11.7806 85.1699 11.7917L84.3988 11.9512C84.3466 11.9623 84.2993 11.9488 84.2938 11.9211L84.2883 11.8941C84.2827 11.8665 84.3202 11.8358 84.3724 11.8248L85.1435 11.6653C85.1957 11.6542 85.243 11.6677 85.2485 11.6953L85.2541 11.7223Z" fill="url(#paint21_linear_48_769)"/>
<path d="M88.7835 13.7287C88.2168 13.5197 87.1085 11.5993 86.8967 12.2313C86.6848 12.8632 86.9863 13.7287 86.8967 13.9973C86.807 14.2659 86.1936 15.7584 86.4699 16.445C86.6689 16.9405 86.9974 18.4649 87.165 19.2757C87.2209 19.5449 87.4572 19.7374 87.7317 19.738C88.0062 19.738 88.2432 19.5456 88.299 19.2763C88.3205 19.1681 89.3496 13.9377 88.7835 13.7287Z" fill="url(#paint22_linear_48_769)"/>
<path d="M125.873 46.1094C125.601 46.1665 125.383 46.3349 125.278 46.5704L123.823 49.8215C123.63 50.2524 123.863 50.7848 124.347 51.0233L131.725 54.6574C131.978 54.7822 132.266 54.8074 132.517 54.7262C132.767 54.6451 132.957 54.4656 133.039 54.232L133.896 51.788C134.03 51.4087 133.853 50.9655 133.47 50.7147L126.69 46.2729C126.444 46.1118 126.145 46.0522 125.873 46.1094Z" fill="url(#paint23_linear_48_769)"/>
<path d="M138.409 39.4772C139.987 27.5477 130.804 18.3746 130.804 18.3746L125.34 24.7515C129.489 29.9278 131.46 34.6709 132.361 38.3966C133.555 38.048 136.431 37.4979 138.409 39.4772Z" fill="#B9E5D1"/>
<path d="M132.36 38.7368C132.208 38.7368 132.069 38.6329 132.032 38.478C130.922 33.8856 128.581 29.3392 125.076 24.9656C124.959 24.82 124.982 24.6067 125.129 24.4893C125.274 24.3725 125.487 24.3958 125.604 24.5415C129.172 28.9938 131.556 33.6292 132.69 38.3188C132.734 38.5007 132.622 38.6839 132.441 38.7275C132.414 38.7337 132.387 38.7368 132.36 38.7368Z" fill="url(#paint24_linear_48_769)"/>
<path d="M132.44 38.7317C133.277 42.1943 133.109 44.8916 132.982 46.1247C132.934 46.5894 132.561 46.9527 132.095 46.9853C131.566 47.0222 130.846 47.0707 130.202 47.1082C129.495 47.1488 128.71 46.7013 128.185 46.3276C127.916 46.1364 127.57 46.4339 127.72 46.7271C128.112 47.4949 129.106 48.1778 129.791 48.5798C130.041 48.7261 129.994 49.0992 129.716 49.1779L127.835 49.7115C127.622 49.7717 127.462 49.9481 127.422 50.1664C127.382 50.3846 127.47 50.6053 127.648 50.7374C131.978 53.9511 134.782 49.4699 134.782 49.4699C136.908 46.1807 138.008 42.5213 138.409 39.4835C136.401 37.0591 133.635 38.3832 132.44 38.7317Z" fill="url(#paint25_linear_48_769)"/>
<defs>
<linearGradient id="paint0_linear_48_769" x1="69.9655" y1="97.0678" x2="41.558" y2="119.348" gradientUnits="userSpaceOnUse">
<stop stop-color="#53D8FF"/>
<stop offset="1" stop-color="#3840F7"/>
</linearGradient>
<linearGradient id="paint1_linear_48_769" x1="52.6038" y1="97.3884" x2="51.1102" y2="110.409" gradientUnits="userSpaceOnUse">
<stop stop-color="#F9B776"/>
<stop offset="1" stop-color="#F47960"/>
</linearGradient>
<linearGradient id="paint2_linear_48_769" x1="75.0076" y1="103.491" x2="46.6" y2="125.771" gradientUnits="userSpaceOnUse">
<stop stop-color="#53D8FF"/>
<stop offset="1" stop-color="#3840F7"/>
</linearGradient>
<linearGradient id="paint3_linear_48_769" x1="64.5397" y1="98.7702" x2="63.869" y2="111.859" gradientUnits="userSpaceOnUse">
<stop stop-color="#F9B776"/>
<stop offset="1" stop-color="#F47960"/>
</linearGradient>
<linearGradient id="paint4_linear_48_769" x1="81.8838" y1="33.3778" x2="98.487" y2="33.3778" gradientUnits="userSpaceOnUse">
<stop stop-color="#F9B776"/>
<stop offset="1" stop-color="#F47960"/>
</linearGradient>
<linearGradient id="paint5_linear_48_769" x1="92.1875" y1="17.445" x2="66.1282" y2="30.3931" gradientUnits="userSpaceOnUse">
<stop stop-color="#F9B776"/>
<stop offset="1" stop-color="#F47960"/>
</linearGradient>
<linearGradient id="paint6_linear_48_769" x1="58.5488" y1="21.4959" x2="62.0169" y2="12.036" gradientUnits="userSpaceOnUse">
<stop stop-color="#F9B776"/>
<stop offset="1" stop-color="#F47960"/>
</linearGradient>
<linearGradient id="paint7_linear_48_769" x1="75.7003" y1="32.5015" x2="49.9237" y2="77.239" gradientUnits="userSpaceOnUse">
<stop stop-color="#F9B776"/>
<stop offset="1" stop-color="#F47960"/>
</linearGradient>
<linearGradient id="paint8_linear_48_769" x1="67.056" y1="7.3033" x2="46.4154" y2="23.7237" gradientUnits="userSpaceOnUse">
<stop stop-color="#F9B776"/>
<stop offset="1" stop-color="#F47960"/>
</linearGradient>
<linearGradient id="paint9_linear_48_769" x1="59.0949" y1="1.89476" x2="68.5605" y2="14.0677" gradientUnits="userSpaceOnUse">
<stop stop-color="#2B3582"/>
<stop offset="1" stop-color="#150E42"/>
</linearGradient>
<linearGradient id="paint10_linear_48_769" x1="64.9803" y1="6.40168" x2="54.8229" y2="14.1647" gradientUnits="userSpaceOnUse">
<stop stop-color="#F9B776"/>
<stop offset="1" stop-color="#F47960"/>
</linearGradient>
<linearGradient id="paint11_linear_48_769" x1="81.5835" y1="37.5772" x2="85.675" y2="37.5772" gradientUnits="userSpaceOnUse">
<stop stop-color="#F9B776"/>
<stop offset="1" stop-color="#F47960"/>
</linearGradient>
<linearGradient id="paint12_linear_48_769" x1="117.365" y1="19.7626" x2="120.886" y2="-3.61833" gradientUnits="userSpaceOnUse">
<stop stop-color="#F9B776"/>
<stop offset="1" stop-color="#F47960"/>
</linearGradient>
<linearGradient id="paint13_linear_48_769" x1="116.938" y1="5.26004" x2="114.274" y2="20.9219" gradientUnits="userSpaceOnUse">
<stop stop-color="#F9B776"/>
<stop offset="1" stop-color="#F47960"/>
</linearGradient>
<linearGradient id="paint14_linear_48_769" x1="119.734" y1="12.6748" x2="111.889" y2="4.3512" gradientUnits="userSpaceOnUse">
<stop stop-color="#2B3582"/>
<stop offset="1" stop-color="#150E42"/>
</linearGradient>
<linearGradient id="paint15_linear_48_769" x1="119.245" y1="22.3607" x2="119.719" y2="11.3619" gradientUnits="userSpaceOnUse">
<stop stop-color="#F9B776"/>
<stop offset="1" stop-color="#F47960"/>
</linearGradient>
<linearGradient id="paint16_linear_48_769" x1="129.889" y1="103.83" x2="126.539" y2="103.83" gradientUnits="userSpaceOnUse">
<stop stop-color="#F9B776"/>
<stop offset="1" stop-color="#F47960"/>
</linearGradient>
<linearGradient id="paint17_linear_48_769" x1="151.185" y1="101.02" x2="147.182" y2="101.02" gradientUnits="userSpaceOnUse">
<stop stop-color="#F9B776"/>
<stop offset="1" stop-color="#F47960"/>
</linearGradient>
<linearGradient id="paint18_linear_48_769" x1="84.8908" y1="14.132" x2="81.135" y2="19.425" gradientUnits="userSpaceOnUse">
<stop stop-color="#F9B776"/>
<stop offset="1" stop-color="#F47960"/>
</linearGradient>
<linearGradient id="paint19_linear_48_769" x1="89.1882" y1="11.1897" x2="76.0333" y2="29.7286" gradientUnits="userSpaceOnUse">
<stop stop-color="#2B3582"/>
<stop offset="1" stop-color="#150E42"/>
</linearGradient>
<linearGradient id="paint20_linear_48_769" x1="88.284" y1="12.0991" x2="77.6867" y2="27.0337" gradientUnits="userSpaceOnUse">
<stop stop-color="#FDF53F"/>
<stop offset="1" stop-color="#D93C65"/>
</linearGradient>
<linearGradient id="paint21_linear_48_769" x1="84.9674" y1="11.5889" x2="84.8254" y2="12.5158" gradientUnits="userSpaceOnUse">
<stop stop-color="#8D55D1"/>
<stop offset="0.9964" stop-color="#1C2873"/>
</linearGradient>
<linearGradient id="paint22_linear_48_769" x1="89.4859" y1="13.1165" x2="81.7117" y2="24.0725" gradientUnits="userSpaceOnUse">
<stop stop-color="#F9B776"/>
<stop offset="1" stop-color="#F47960"/>
</linearGradient>
<linearGradient id="paint23_linear_48_769" x1="128.854" y1="45.293" x2="128.834" y2="64.8135" gradientUnits="userSpaceOnUse">
<stop stop-color="#2B3582"/>
<stop offset="1" stop-color="#150E42"/>
</linearGradient>
<linearGradient id="paint24_linear_48_769" x1="143.427" y1="-16.3741" x2="119.236" y2="63.0197" gradientUnits="userSpaceOnUse">
<stop stop-color="#FDF53F"/>
<stop offset="1" stop-color="#D93C65"/>
</linearGradient>
<linearGradient id="paint25_linear_48_769" x1="135.389" y1="40.0948" x2="126.423" y2="57.3176" gradientUnits="userSpaceOnUse">
<stop stop-color="#F9B776"/>
<stop offset="1" stop-color="#F47960"/>
</linearGradient>
</defs>
</svg>
