<svg width="17" height="13" viewBox="0 0 17 13" fill="none" xmlns="http://www.w3.org/2000/svg">
<path d="M13.0392 1.16448L8.46078 4.73751L3.77773 1.16448V1.16545L3.78338 1.17028V6.17348L8.40797 9.82376L13.0392 6.31447V1.16448Z" fill="#F44336"/>
<path d="M14.2415 0.295471L13.0391 1.16459V6.31457L16.8225 3.4098V1.65998C16.8225 1.65998 16.3633 -0.839207 14.2415 0.295471Z" fill="#FDD835"/>
<path d="M13.0391 6.31459V12.9942H15.9389C15.9389 12.9942 16.7641 12.9092 16.8235 11.9687V3.40981L13.0391 6.31459Z" fill="#43A048"/>
<path d="M3.7836 12.9999V6.17351L3.77773 6.16868L3.7836 12.9999Z" fill="#F44336"/>
<path d="M3.77775 1.16557L2.582 0.301283C0.460195 -0.833394 0 1.66483 0 1.66483V3.41465L3.77775 6.16877V1.16557Z" fill="#B71B1C"/>
<path d="M3.77773 1.16548V6.16868L3.7836 6.17351V1.17031L3.77773 1.16548Z" fill="#F44336"/>
<path d="M0 3.41554V11.9744C0.0584674 12.9159 0.884556 12.9999 0.884556 12.9999H3.78435L3.77775 6.1687L0 3.41554Z" fill="#304FFE"/>
</svg>
