<svg width="24" height="24" viewBox="0 0 24 24" fill="none" xmlns="http://www.w3.org/2000/svg">
<path d="M18 21.0002H6.00005C5.33731 21.0002 4.80005 20.463 4.80005 19.8002C4.80005 17.8153 6.03149 16.0387 7.89014 15.3421L8.25916 15.2038C10.6712 14.2998 13.3289 14.2998 15.7409 15.2038L16.11 15.3421C17.9686 16.0387 19.2 17.8153 19.2 19.8002C19.2 20.463 18.6628 21.0002 18 21.0002Z" fill="#C2CCDE" fill-opacity="0.25"/>
<path d="M10.1705 11.6604C11.3189 12.2503 12.6812 12.2503 13.8296 11.6604C14.8984 11.1114 15.6641 10.1115 15.9155 8.93657L15.9826 8.62299C16.2397 7.4215 15.9651 6.16752 15.2294 5.18345L15.1216 5.03934C14.3858 4.05513 13.2289 3.47559 12 3.47559C10.7712 3.47559 9.61428 4.05513 8.87846 5.03934L8.77072 5.18345C8.035 6.16752 7.76038 7.4215 8.01748 8.62299L8.08457 8.93657C8.33598 10.1115 9.10172 11.1114 10.1705 11.6604Z" fill="#C2CCDE" fill-opacity="0.25"/>
<path d="M18 21.0002H6.00005C5.33731 21.0002 4.80005 20.463 4.80005 19.8002C4.80005 17.8153 6.03149 16.0387 7.89014 15.3421L8.25916 15.2038C10.6712 14.2998 13.3289 14.2998 15.7409 15.2038L16.11 15.3421C17.9686 16.0387 19.2 17.8153 19.2 19.8002C19.2 20.463 18.6628 21.0002 18 21.0002Z" stroke="#414141" stroke-linecap="round" stroke-linejoin="round"/>
<path d="M10.1705 11.6604C11.3189 12.2503 12.6812 12.2503 13.8296 11.6604C14.8984 11.1114 15.6641 10.1115 15.9155 8.93657L15.9826 8.62299C16.2397 7.4215 15.9651 6.16752 15.2294 5.18345L15.1216 5.03934C14.3858 4.05513 13.2289 3.47559 12 3.47559C10.7712 3.47559 9.61428 4.05513 8.87846 5.03934L8.77072 5.18345C8.035 6.16752 7.76038 7.4215 8.01748 8.62299L8.08457 8.93657C8.33598 10.1115 9.10172 11.1114 10.1705 11.6604Z" stroke="#414141" stroke-linecap="round" stroke-linejoin="round"/>
</svg>
