<svg width="40" height="40" viewBox="0 0 40 40" fill="none" xmlns="http://www.w3.org/2000/svg">
<path d="M6 11V29C6 30.6569 7.34315 32 9 32H31C32.6569 32 34 30.6569 34 29V15C34 13.3431 32.6569 12 31 12H30V11C30 9.34315 28.6569 8 27 8H9C7.34315 8 6 9.34315 6 11Z" fill="#C2CCDE" fill-opacity="0.25"/>
<path d="M26 21.5C26 20.3954 26.8954 19.5 28 19.5C29.1046 19.5 30 20.3954 30 21.5C30 22.6046 29.1046 23.5 28 23.5C26.8954 23.5 26 22.6046 26 21.5Z" fill="#C2CCDE" fill-opacity="0.25"/>
<path d="M30 12V11C30 9.34315 28.6569 8 27 8H9C7.34315 8 6 9.34315 6 11V29C6 30.6569 7.34315 32 9 32H31C32.6569 32 34 30.6569 34 29V15C34 13.3431 32.6569 12 31 12H30ZM30 12H11.25M28 23.5C26.8954 23.5 26 22.6046 26 21.5C26 20.3954 26.8954 19.5 28 19.5C29.1046 19.5 30 20.3954 30 21.5C30 22.6046 29.1046 23.5 28 23.5Z" stroke="white" stroke-linecap="round" stroke-linejoin="round"/>
</svg>
