<svg width="24" height="24" viewBox="0 0 24 24" fill="none" xmlns="http://www.w3.org/2000/svg">
<path d="M15 7.49964L15 12.8991L15 15.2995C15 15.9624 14.4626 16.4996 13.7998 16.4995L11.3428 16.4991L8.99998 16.4993L8.99998 18.8995C8.99998 19.5624 9.53736 20.0996 10.2002 20.0995L17.3998 20.0996C18.0626 20.0997 18.6 19.5624 18.6 18.8996L18.6 8.69964C18.6 8.03689 18.0627 7.49964 17.4 7.49964L15 7.49964Z" fill="#C2CCDE" fill-opacity="0.25"/>
<path d="M13.8 3.89965C14.4627 3.89965 15 4.43691 15 5.09965L15 12.8991L15 15.2995C15 15.9624 14.4626 16.4996 13.7998 16.4995L11.3428 16.4991L6.60011 16.4996C5.93732 16.4997 5.39998 15.9624 5.39998 15.2996L5.39998 5.09965C5.39998 4.43691 5.93724 3.89965 6.59998 3.89965L13.8 3.89965Z" fill="#C2CCDE" fill-opacity="0.25"/>
<path d="M15 12.8991L15 7.49963L17.4 7.49964C18.0627 7.49964 18.6 8.03689 18.6 8.69964L18.6 18.8996C18.6 19.5624 18.0626 20.0997 17.3998 20.0996L10.2002 20.0995C9.53736 20.0996 8.99998 19.5624 8.99998 18.8995L8.99998 16.4993L11.3428 16.4991M15 12.8991L15 15.2995C15 15.9624 14.4626 16.4996 13.7998 16.4995L11.3428 16.4991M15 12.8991L15 5.09965C15 4.43691 14.4627 3.89965 13.8 3.89965L6.59998 3.89965C5.93724 3.89965 5.39998 4.43691 5.39998 5.09965L5.39998 15.2996C5.39998 15.9624 5.93732 16.4997 6.60011 16.4996L11.3428 16.4991" stroke="#414141" stroke-linecap="round" stroke-linejoin="round"/>
</svg>
