<svg width="17" height="17" viewBox="0 0 17 17" fill="none" xmlns="http://www.w3.org/2000/svg">
<path d="M7.53599 0.700627C7.83942 -0.233237 9.16058 -0.233235 9.46401 0.700629L10.7757 4.73768C10.9114 5.15531 11.3006 5.43807 11.7397 5.43807H15.9845C16.9665 5.43807 17.3747 6.69458 16.5803 7.27174L13.1462 9.76677C12.791 10.0249 12.6423 10.4824 12.778 10.9L14.0897 14.9371C14.3932 15.8709 13.3243 16.6475 12.5299 16.0703L9.09579 13.5753C8.74053 13.3172 8.25947 13.3172 7.90421 13.5753L4.47009 16.0704C3.6757 16.6475 2.60685 15.8709 2.91028 14.9371L4.222 10.9C4.3577 10.4824 4.20904 10.0249 3.85378 9.76677L0.419658 7.27174C-0.374734 6.69458 0.0335313 5.43807 1.01545 5.43807H5.26025C5.69938 5.43807 6.08857 5.15531 6.22427 4.73767L7.53599 0.700627Z" fill="#FBC02D"/>
</svg>
