<svg width="20" height="10" viewBox="0 0 20 10" fill="none" xmlns="http://www.w3.org/2000/svg">
<path d="M18.4615 8.30769L17.5385 7.56923L10 1.53846L2.46154 7.56923L1.53846 8.30769" stroke="#08B783" stroke-width="3" stroke-linecap="round" stroke-linejoin="round"/>
<path fill-rule="evenodd" clip-rule="evenodd" d="M15 5.53826H16.7692V1.84595L10.6154 1.84595V2.03057L15 5.53826Z" fill="#08B783"/>
<path d="M16.7692 5.53826V6.5639C17.3357 6.5639 17.7948 6.10471 17.7948 5.53826L16.7692 5.53826ZM15 5.53826L14.3593 6.33915C14.5411 6.48464 14.7671 6.5639 15 6.5639V5.53826ZM16.7692 1.84595L17.7948 1.84595C17.7948 1.27951 17.3357 0.820312 16.7692 0.820312V1.84595ZM10.6154 1.84595V0.820312C10.0489 0.820312 9.58972 1.27951 9.58972 1.84595H10.6154ZM10.6154 2.03057H9.58972C9.58972 2.34214 9.73135 2.63682 9.97465 2.83146L10.6154 2.03057ZM16.7692 4.51262H15V6.5639H16.7692V4.51262ZM15.7436 1.84595V5.53826L17.7948 5.53826V1.84595L15.7436 1.84595ZM10.6154 2.87159L16.7692 2.87159V0.820312L10.6154 0.820312V2.87159ZM11.641 2.03057V1.84595L9.58972 1.84595V2.03057L11.641 2.03057ZM9.97465 2.83146L14.3593 6.33915L15.6407 4.73737L11.2561 1.22968L9.97465 2.83146Z" fill="#08B783"/>
</svg>
