<svg width="24" height="24" viewBox="0 0 24 24" fill="none" xmlns="http://www.w3.org/2000/svg">
<path d="M8.7164 5.18112C10.7915 4.18181 13.2087 4.18181 15.2838 5.18112C17.3589 6.18043 18.866 8.07028 19.3785 10.3157C19.891 12.5611 19.3531 14.9177 17.9171 16.7184C16.4811 18.5191 14.3033 19.5679 12.0001 19.5679C9.69692 19.5679 7.51909 18.5191 6.08308 16.7184C4.64708 14.9177 4.1092 12.5611 4.6217 10.3157C5.13421 8.07028 6.64131 6.18043 8.7164 5.18112Z" fill="#C2CCDE" fill-opacity="0.25"/>
<path d="M9.90009 10.1998C9.90009 10.5311 9.63146 10.7998 9.30009 10.7998C8.96872 10.7998 8.70009 10.5311 8.70009 10.1998C8.70009 9.86841 8.96872 9.59978 9.30009 9.59978C9.63146 9.59978 9.90009 9.86841 9.90009 10.1998Z" fill="#C2CCDE" fill-opacity="0.25"/>
<path d="M15.3001 10.1998C15.3001 10.5311 15.0315 10.7998 14.7001 10.7998C14.3687 10.7998 14.1001 10.5311 14.1001 10.1998C14.1001 9.86841 14.3687 9.59978 14.7001 9.59978C15.0315 9.59978 15.3001 9.86841 15.3001 10.1998Z" fill="#C2CCDE" fill-opacity="0.25"/>
<path d="M15.1821 15.1818C14.3382 16.0257 13.1936 16.4998 12.0001 16.4998C10.8066 16.4998 9.66202 16.0257 8.81811 15.1818M4.6217 10.3157C5.13421 8.07028 6.64131 6.18043 8.7164 5.18112C10.7915 4.18181 13.2087 4.18181 15.2838 5.18112C17.3589 6.18043 18.866 8.07028 19.3785 10.3157C19.891 12.5611 19.3531 14.9177 17.9171 16.7184C16.4811 18.5191 14.3033 19.5679 12.0001 19.5679C9.69692 19.5679 7.51909 18.5191 6.08308 16.7184C4.64708 14.9177 4.1092 12.5611 4.6217 10.3157ZM9.90009 10.1998C9.90009 10.5311 9.63146 10.7998 9.30009 10.7998C8.96872 10.7998 8.70009 10.5311 8.70009 10.1998C8.70009 9.86841 8.96872 9.59978 9.30009 9.59978C9.63146 9.59978 9.90009 9.86841 9.90009 10.1998ZM15.3001 10.1998C15.3001 10.5311 15.0315 10.7998 14.7001 10.7998C14.3687 10.7998 14.1001 10.5311 14.1001 10.1998C14.1001 9.86841 14.3687 9.59978 14.7001 9.59978C15.0315 9.59978 15.3001 9.86841 15.3001 10.1998Z" stroke="#414141" stroke-linecap="round" stroke-linejoin="round"/>
</svg>
