<svg width="24" height="24" viewBox="0 0 24 24" fill="none" xmlns="http://www.w3.org/2000/svg">
<path d="M5.21184 6.24187C4.42419 7.02952 3.98169 8.09781 3.98169 9.21172C3.98169 10.3256 4.42419 11.3939 5.21184 12.1816L11.5758 18.5455C11.8101 18.7798 12.19 18.7798 12.4243 18.5455L18.7883 12.1816C19.5759 11.3939 20.0184 10.3256 20.0184 9.21172C20.0184 8.09781 19.5759 7.02952 18.7883 6.24187C18.0006 5.45422 16.9324 5.01172 15.8184 5.01172C14.7045 5.01172 13.6362 5.45422 12.8486 6.24187L12.2074 6.88309C12.0929 6.99758 11.9073 6.99758 11.7928 6.88309L11.1515 6.24187C10.3639 5.45422 9.2956 5.01172 8.18169 5.01172C7.06778 5.01172 5.99949 5.45422 5.21184 6.24187Z" fill="#C2CCDE" fill-opacity="0.25" stroke="#414141" stroke-linecap="round" stroke-linejoin="round"/>
</svg>
