<svg width="60" height="46" viewBox="0 0 60 46" fill="none" xmlns="http://www.w3.org/2000/svg">
<path d="M19.1536 44.55H19.1586H19.1586H19.1587H19.1587H19.1588H19.1588H19.1588H19.1589H19.1589H19.159H19.159H19.1591H19.1591H19.1591H19.1592H19.1592H19.1593H19.1593H19.1594H19.1594H19.1594H19.1595H19.1595H19.1596H19.1596H19.1596H19.1597H19.1597H19.1598H19.1598H19.1599H19.1599H19.1599H19.16H19.16H19.1601H19.1601H19.1602H19.1602H19.1602H19.1603H19.1603H19.1604H19.1604H19.1605H19.1605H19.1605H19.1606H19.1606H19.1607H19.1607H19.1607H19.1608H19.1608H19.1609H19.1609H19.161H19.161H19.161H19.1611H19.1611H19.1612H19.1612H19.1613H19.1613H19.1613H19.1614H19.1614H19.1615H19.1615H19.1616H19.1616H19.1616H19.1617H19.1617H19.1618H19.1618H19.1619H19.1619H19.1619H19.162H19.162H19.1621H19.1621H19.1621H19.1622H19.1622H19.1623H19.1623H19.1624H19.1624H19.1624H19.1625H19.1625H19.1626H19.1626H19.1627H19.1627H19.1627H19.1628H19.1628H19.1629H19.1629H19.163H19.163H19.163H19.1631H19.1631H19.1632H19.1632H19.1633H19.1633H19.1633H19.1634H19.1634H19.1635H19.1635H19.1635H19.1636H19.1636H19.1637H19.1637H19.1638H19.1638H19.1638H19.1639H19.1639H19.164H19.164H19.1641H19.1641H19.1641H19.1642H19.1642H19.1643H19.1643H19.1644H19.1644H19.1644H19.1645H19.1645H19.1646H19.1646H19.1647H19.1647H19.1647H19.1648H19.1648H19.1649H19.1649H19.1649H19.165H19.165H19.1651H19.1651H19.1652H19.1652H19.1652H19.1653H19.1653H19.1654H19.1654H19.1655H19.1655H19.1655H19.1656H19.1656H19.1657H19.1657H19.1658H19.1658H19.1658H19.1659H19.1659H19.166H19.166H19.1661H19.1661H19.1661H19.1662H19.1662H19.1663H19.1663H19.1663H19.1664H19.1664H19.1665H19.1665H19.1666H19.1666H19.1666H19.1667H19.1667H19.1668H19.1668H19.1669H19.1669H19.1669H19.167H19.167H19.1671H19.1671H19.1672H19.1672H19.1672H19.1673H19.1673H19.1674H19.1674H19.1675H19.1675H19.1675H19.1676H19.1676H19.1677H19.1677H19.1677H19.1678H19.1678H19.1679H19.1679H19.168H19.168H19.168H19.1681H19.1681H19.1682H19.1682H19.1683H19.1683H19.1683H19.1684H19.1684H19.1685H19.1685H19.1686H19.1686H19.1686H19.1687H19.1687H19.1688H19.1688H19.1689H19.1689H19.1689H19.169H19.169H19.1691H19.1691H19.1691H19.1692H19.1692H19.1693H19.1693H19.1694H19.1694H19.1694C20.1536 44.55 21.1004 44.1598 21.7964 43.4598C21.797 43.4592 21.7976 43.4586 21.7982 43.458L57.9037 7.35252C59.3552 5.90104 59.3552 3.54776 57.9037 2.09628C56.4522 0.644796 54.0991 0.644794 52.6476 2.09628L19.1859 35.558L7.37298 23.5578C7.37284 23.5577 7.37271 23.5576 7.37258 23.5574C5.93341 22.0939 3.57695 22.0815 2.11692 23.5168L2.11569 23.518C0.655857 24.958 0.634183 27.3106 2.07645 28.7734C2.07666 28.7736 2.07686 28.7738 2.07707 28.774L16.5197 43.4405L16.5201 43.441C17.2181 44.1488 18.1644 44.545 19.1536 44.55Z" fill="#08B783" stroke="#08B783" stroke-width="2"/>
</svg>
